<mxfile host="app.diagrams.net" modified="2020-09-18T02:37:23.135Z" agent="5.0 (Windows NT 10.0; Win64; x64) AppleWebKit/537.36 (KHTML, like Gecko) Chrome/85.0.4183.102 Safari/537.36" etag="d10E0VkDaxyN8GzN1O5h" version="13.7.3" type="github">
  <diagram id="iYEn4umjjur39iSf_b1T" name="PÃ¡gina-1">
    <mxGraphModel dx="782" dy="738" grid="1" gridSize="10" guides="1" tooltips="1" connect="1" arrows="1" fold="1" page="1" pageScale="1" pageWidth="827" pageHeight="1169" math="0" shadow="0">
      <root>
        <mxCell id="0" />
        <mxCell id="1" parent="0" />
        <mxCell id="Ikv2INTPPHsoQ_Vg49fc-1" value="" style="shape=image;verticalLabelPosition=bottom;labelBackgroundColor=#ffffff;verticalAlign=top;aspect=fixed;imageAspect=0;image=data:image/png,iVBORw0KGgoAAAANSUhEUgAAAegAAAKRCAYAAACflTqYAAAgAElEQVR4Aex9Dawb1ZV/KBAggaaloSGBNlu6sAk0Cfli2W2BkoqvQOjydpEgK7ai3rR9tdoSWdEqtbISbw1UDwvYhxVpqTd8VH4ioY7KU/3SdvtSVgG/JC91WqG+SEtw/urTYtqIWlW0Mh+C89cZ+9rXd+4ce77H9rE0njv3zL1z5/zOOb+ZO3fuzAMA+OCDD4wF07pfpVLRZZPlqDopGR6Ij2dWN6UzSsb6/MCszA42z/pkf1eNhrIJSsb+x/5nx5ZUe5mHGWxgHJDsGBHbC9sL20tLA+wP7A8ta6inKJugZFhavkFlglYUIiuaUqRTmQoAH6+uAdan/k6D7UWvF7YXvV7YXvR66VV7YYJmgpavEZrpXjXo5gl06Bni89MHMg7wer2wvej1wvai14tX9jIPK6rVasYiKlXX//u//9vsBpdlVDmnMqyfj1cfE+CFrlmfNU9tl/XJ+pT9EtNUrGN7YXtxYy+RI+jf//738LOf/QyOHDliWorFIuDipQzrOnDggKd1Uu304njHjh2D06dPN4knSgGC8etsn1HGjyKUkydPwmuvvQbT09Om5dVXXwVc7Mpw/8nJSdvlonq8o0ePwttvv930TUqflN86lTk9nlNs+w0/nf0K+1SxdYoRVU7FLzJd3Lt374Y1a9bAJZdcAmvXroX169cHtvTa8VBPCxYsgJtvvhn279/fDAZy966clgcdyPloDLjofnZljF/39hpF/GQbUO0FsV21ahVceumlsGHDBti4caNpwXwnMqwLfd3LOqm2+H08jCWLFi2CL3/5y4Zvol5VfQpd2/WxbsrZPZ5bbP3Wp84uwrIXFdsg8AudoPEk7777brjtttvg4MGDwgZ53YUG9u7dC9dccw1897vftSRauw4rDtut8TF+QmP211HAT9dqQSh4pY++efvtt8OvfvUr3a6cZ6GBffv2werVq+F73/teJAmasbUArotsgS0Vd7uNn7rDCf9DWegEPTQ0ZBCMrqGc11kD7777rhFAd+7cabmzDLi8k1MjkssxfrJG7afDxk/XYmEv99xzD/umTkFd5n344YewefNmeOihh7QlZD9Sd3Aqw3oEflSdjK2qHXvbiO0dd9wBVnHXK/xCJejnn38ebrrpJnua4b1NGvjjH/8IF198MRw/ftwkw4xuHFYt2I2BMX6q1pxth4WfVWvRXhBb7KblnzsN/OlPfzIe25VKJVNF3fiYqVCHtxNw/07+ztjqtGo/D7H99Kc/DV5iq+IXKkHfeOON8PLLL9vXDJcwaeDhhx+2vFLv5LCmyjoEARFYGD+d5pzlhYGfVUvRXm644Qb2TSsF2cxHbLGrW/0JP1LzcdupDMt28nfGVqdxZ3leY6viF9oo7jNnzsBZZ51FPjt1prLBLIWjw3EQg3Bsee3Ha2uMn7d2FjR++AxSthE5/eabb8L8+fO9PcEBrm1mZsYYACvrGNPUaF6nMqyX8vdqtcrYemiLXmOr4hcaQZfLZVi6dKmHqhrsqtAply1bpg26lMNaBepOAYLx89begsbPCncMEBh0PvOZz3h7ggNc2x/+8AdYsmSJyTc7+ZgVRlQ5NcDjtliw3BtvvMHYemiLXmOr4hdaFze+L4uEwj9vNCACvK62Tl1eujLCqa1kjJ9OM87zgsYP8bX6/frXv+YgbqUcB/kiiKtFO/mYFUZUOTwG5e+nTp1ibFUgXGx7ja2KHxO0C3CiVDToAM8E7S36QeNnFfzxrJigvcXW6yDOBO0tPm5q8xpbbIt8gcUE7QadCJUNOsA7J+gqFEfjsHVbDGLfyULpjA0lzmQgM9Pd/pWJDBT0H9nprgLNXn7UKQ4TNH5M0ELz/q+9DuLeE7QLn4QSZMbMI9QNrZ4pQvqBrZB6cR9kJrxwRuJYdmCsFDxqD4DX2OJpMEHbAbNH9g06wDsm6INJiE/W6lo9nYf4oy3nrlWrUG2I2tVeAxzcUjuUgtS0kDTy5J7aWhWqjQoq4ynIzTX2PYP5VWhWfQbnnhfHqtdTFRcKOC/9B426xaEaa7JOADDaL+pRynbaDBo/JuhOiHgn9zqIe07QhE+C4TtNz2lTSt1fi5AaKTby232yNpmExAT6Hfob7lJfm/xc8ltjL/QhPK7Jl8zHkuOFUa+cIVor/L0p69Ae9ZxFPJBjTaNur7HFapmgBXB9tA46wDsm6Lk8xO5NQm6yBOWmA1YgvyMB2ckpyO1KQO6UDEwF8tuTkDtYgMyDn6sTdK0E6eE05DFvewqKZwBqM2mIPZqHqckMJEZL8P8aBI2kHhsrwNRkFuI7C1AFgOLI30BsLAuF6d9AbhvWPQX5kRhkXgeojMdhaCQHhckMxLbX9xetEQRtrrMGxdF6PbmdQ0Y9oky366DxY4LuFhn3+3kdxD0naK1PAlT2JyCxpwBT40lIjJfbFFHZl4Dk+BQUxmLwOSRok09WYXZ3DGK7S1A5mYPUeAVgLgfxe1OQm0RfTkChWvfb+GjDbx8tQg2KkLo5Bpn9U2D2JUHQGBNEvNgKmeMA5ReSkJmstycxiV7e+hVHVsLWJ/IwtT8FsSdKRjus2mM651oR0rtyMHUwB8l7MzDbqtZIeY0tVsoErSi5HzaDDvCOCRqV/UENysfzkN2xFTaPlqA2l4PY9ixMHZyCqX1JGEInEr+5HCRfaASH6cYd9HQKhkYL9f13xyA+UYXSo0mYalzo49W6IFP4oArlmSmY2p+GrcM5wI624kiitW+lBMWDBcjt2GyQf2U8Adk38OAVyI3U9xdNoeosjW2F2GgOCseddeUFjR8TtEDV/7XXQdxzgkYVqD6J9r8tAVn0yYN5SN6bhpZXViC3Kwd1r2yQpsYnQfjrXIugE8/USwlfKo4MQXoSjzEFmW1xKFSLkNoxVe/tEuWbEDWOJceEasHohatOJmDr9izkp8vGRXiziOHvSajf41cgN5yGkmV7dOdcgsz9MUiPF6CkcW2vscV2txE0bmBwwAXTugW/dKLLp8p1kuHsK/yalWxG7tKob/yYgQ6nKOE3uycJedH1DGXIDWdgtpKHxBNFoxu6OjcLs3NSl1olD8mGU8OhZP0OeiYF8X2V+v4nZmG2ChJBV6F8vNK8g54di0PmeAWqtbIRVOoEnao7bLUAyZ0FKFdrUGvULQIHRdC6OqsV7JKrwOy+hNE2u2gGjR8eT2crmHfo0CG4/PLL7Z4C72+hAQzi+BEgVd+dYqQVRlQ5PAbl7/gKnYqt1icBe7XSUMTHTtUKzL5eaT0iQtnObJOgk3gHrfFJHUEbd65IQo0ertKjccjP1R9Bzb4+C1W8gxZd5lYELccEvCvHC/oK+ngVytNp2Co9NkNIWhfkZch9JwtliaDb26M75ypUTlehVpmF/I445BWS9hpbFT8eJGbhVL2WjU5r9doagq77UVfinWSO76Bx4Mi9MUiMpiE5HIPEJLYNu4jjkBrPQWY4Afm2Lu6GbE8W0ts2NZ5Blw1nyYznIDWcNrq44VQeEsMZyI7FIbGv3AwA2BWH3XT5sSTEHqjfBRRHGgSN3XLbUpCfzEH6O0PG8zIROCiC1tVp3EGP5SC3M2Z0uen0TeUFjR/fQVNoeCvz+i6L8k1sOeXv2testD4JUJtOQ3wkB7mGT8laqcuykH0iBpsMQtX4pCBYS0IEEH6bG09BfLTRxd2JoEW82JOF1INxI14Yd9A7c5B7IgZJUxf338DWnRnIjsbr8YZoj/mc63fQGGuS2zJSL0JdG15jq+LHBC1bXQ+ngw7wjgm6h3XsZ9ODxo8J2k802+v2Ooh7TtDtze27reYFuQ9n5jW22ET5AosJ2gfQwqgy6ADPBO0tykHjxwTtLX5UbV4HcSZoSttmWXmi0OiON8vc5niNLbaHCdotKhEsH3SAZ4L21giCxo8J2lv8qNq8DuJM0JS2g5V5jS22ngmaxLAEme0FY7SvebcazJ7QP8817xtsjp8BvlgswlNPPdU8IQwQXhK09QQgmokJPJxkoHlCEUj4iZ96enKAV7HFfaMxk1gFCmNWfqieUbS3vQ7iMn66MxcBXsUWy2mfQesqMeVReJj9tHooA4nhOCSfmOp892rl06fykJYmOClPpiHxnSRkDrW/RmVqaoAZXmOLTRf4YTrUj2VYDWoKUL+aQxUhdW/99Zqa+sJ8bcoY9VvTvLCuqSjQLBHghfPKa5TJ2yJNTbovy+6++24477zzYMWKFTA+Pm58hQc/lmGJ3wc42Ufj9JtpZUIQY9KCGtRw8gCcHERoq21SkfqIzraJDcQAD2P/9okRMMvYt/l+tai0/hoJTlbSnKugKRKTFmDhVjtMkx40Jitolsd9azXzZArKpAtwpma8wiImUGkeVkn4iZ/AW6wpbHGfaHwsw/yam6Ey3aQRysQSNZyYArHW2YGi9yA2MYjjd4OF/sVaxkHkibVTGZYX/q7zW0cfyzAmDSm3v3bYpnNp5DUqFOPkjkLdp4+ntW81tPlXm0/XEaniALX7N0Mc35/G31weUo3XLYu78HWsenbrX40FjXgjAovw18aERcbxhQwraTufVq2dUl5jK+OHaSZoEwKCoM0vzBvv627LwOxpU6HQM9Ap8Ys5+NlCdTlw4IApD/fBK2xc1P1V2S9/+Us455xzYN68ebBo0SKDqLdv325N0Kdbr0aV9yQhN1c2TQhiTFqwJQmZPVNwxHJSkSKkvrAV0jhpwa76hARYzng1wjQxAjFZSK0IqW0ZKBwsQPY7yXbnFvXhlWujHaZJDzTlcUKTzTgy9GBrAgecLKV90gV8xWMTxHbnjckehsbUaQ5aZoP44as4Oizc4qfWKeOuYrty5Ur45je/GYEPKmgIWoy6xwlqtiWgcLp9gpr6xDItm8HJZ9LHWzoOK4VB/OKLLzZhK+NAYWRHhvsKe1GxxQvshx56yBa2aNMJnOhnPAmbHqjfuJgm85BfjVKUXJ2IQ/KgzIQ4qUjMmOTEmDgEfULyQVG8drqqya9BZSYHqR359rty2S62p6FUM09kYkxAhBOijCdhaEsSspMFSD9QnztBnuRInZxItMdq7TtB44HFVZtVI+RbbnkfqlwnmZddpHKb3Kclgja9MK9cKbo/mGc1YID/xCc+AevXrzctq1evNuXhfuvWrTMWXRlVht8HRoLGBe+mL7vsMmuChioUduArTWXI7sobEwfUlAlB0CnVSQvMk4oUIbWrMY2geN9ROLNmYgRqspDqGyVjwoX0A/HWFKCofVGfRNC6SQ/U8q0JTVoQmiddkN/BpG0H8VuwYIEWJy/wkzHuhC2+Tx/+5yY1BD2dguShhr4bd2bFETEJBUDpCXxPVWMzLYhCSWEQv+CCC0zYqjhQGHUrw/1ke1H9Fnu97GDb0q/AQzeZh962q79IwlZjdjBF7WcqUJqegsJ4AjbjK1WSD7btqcmvVctQ2JWQ5lIA4x3s5C8aFwE4S5FmIpOWv7bsQ1yQt85R2FBbK8gNxBZvjNRfJ/5DudVP5lsexW3SkkTQpvfx9IZoqiKEDAzwVl3OMuBy07o1oldeecUgDySQxYsXG8+jO11g1Q6mID2WghQ6jmZCENkphaOYJwCRZhU6lYM4TlginFYzMYLlZCGvZyCOUw5Wa8aUgM05ulEZkjPjnbMhUyc90JQXbZb1aZ50AQm68c41cZeBdfiJn9xGTMu4q9iOjY1F5hm0OpMbTobRDMTTKdMMcsURZSYqYTOqAgLe9jqIy/jpTkX4u4otjiOx+wy6NUOfmOhHN5mHOS6W98UhrkwPWm9rFQo7k1A4VYVarQjGJCfCp9WTkfNPFSB/vEHCh6T5/LGMZBd4IV35f60ePPRvnMik5a+ttoq81jmiv+q6z9WGtba9xhZrFvhhmgm6petGiiLoWcjcG4PMtOkBiKmWoDP8DPAbN26ECy+8EDB44w8DRCeCBiSkv2xMvym6oKQJQZpEK925micAKULq+q2QeiEHKezSxBnImk5rnhjBcrKQuTwktmehsD8DyQe3Kt2e9YkIkqNJiG+p312bJj3QlBfO3YZzY7KU1qQL0SdoFVs8n6gMEssNb4XkaBrSuEzgo4QG5nsyEH/QPEFNTEx0cf1WSO7OQnq4YTNtIAW/4XUQ75agVWyxnF2CFhOJZHcnYKgxVa55Mo8W6RnaPZ2H2M0xSDWwy7bFyxqURmOQ2l+A3GgchnYUoNr0aQWbtvwW9jGcMKSt17wlixvd363JjcREJi1/bbW1mSdNclS3IaUdxKbX2OKhmKAJhfeqyE+CVnXSHUGrpXib0kDQ+CGGVr9oELRV6zrltwJwpz2DknsdxLslaPX8HBG0WknY29ZmG0rLvMYWT4IJOhQo/T1o0AG+8x20v+fbb7UHjV//EnQZCsbddnQsxOsgPtAEHR1YjZZ4jS1W2kbQCDY1pB/lGDyEUchrqlwnGfmaTsRA6IXmiAAv4yPSjF/0EQwaP/RPYR/qOhqvWUUfs25biEE8jNesVFwRc0evWXV7ogO4n9fYImZyvObXrPrEqIIO8HyB5a3hBI0fE7S3+FG1eR3EqZsfNcDLJM0ETaHkTOY1tip+PEjMGS6RKyUCvK5hcpeJLBfOK+eJdCdZdLu4qRmPxNlp1lazGWl29SMraPwQX6tfbz+Dtjqr8PIxiHv5Kg7lm3iWlL/bHiQWoNpKY/i1KPOsZDCTgcxMgA2xcSivsVXxY4K2AUaUdw06wAdO0OoMXerMXgiOacYjdfayFoLm2aYaM4rhjENitqrW7r6ngsaPCdp3SJsH8DqI9ypBm2Z3M2bvqjZnERSvJBozOBraa8wOdijV+MysmPGrVQZ3M9Xb1Lz/Ca+xxRbLF1hM0P5jGMgRgg7wQRK0PNNPYrRkvD+pzgxmnvFIM3tZEwnNbFONVzqMGYdGclCYzIDdWYWa1TtIBI0fE7QDkBwW8TqI9x5Bm2f5qx1KQQxnKJvMQnxnwZjMqE7QYhQ+zgaWhBzOGvfg5wyCNpcx1+sQIsfFvMYWG8IE7RiO6BYMOsAHSdDyRAI4URD+1Jm9WrMBiRmPAEyzlzXha80mJCYyEO9Xt2YcatXTLOZjImj8mKB9BFOp2usg3nsEDWCa5e+DKpRnpmBqfxq2Nt6vbiNoaQIhmG7cQWvKmOpVdO/3ptfYYnuZoP1GLYT6gw7w4RB0FcrHK1DTzOzVIvHGjEe62cuauFjPUNacvACYoJvq4oQrDXgdxHuRoNVZ/syzBopJfRp30BVpNrBDSeMOWldGrdcVUA4Ke40tNqGNoBFsN6MCrUaDUnWijEcBO7AGooggaOG88hpl8rZId8KIwjZQ/KSZfhL7cLpPzcxgYh8x45Fu9rKm/uozlLXNNtXs4k415uoOh6AFNvLaD/yssMXj8mtWTUPxJIFBfNBfs1Jn+TPPGqgQNLRmA0tv22QQtK6MWq8ngNmoxGts0f9kf+fXrGyAEeVd+5qgPVe8eM7lecWOKwwaPyZox1DZLuh1EKcurNUAL1/oYTl+D9o2fGQBr7FV8eNBYqT6e0coAryuxXKXiSwXzivniXQnWZBd3KJN3q2jN9tU0PghvlY/fs3KSjPO8jGI82tWznQX9VJeY4vnK8fr0Aj6rbfeMr5/G3UAeqV9+H7j8uXLtc2VAZd36ETCVkEc8xk/WZPu00HjZ4Utnslvf/tbwE9O8s8bDczNzcHll19uqsyN/1H4Uf6ObWFsTVA4zvAaW2yIjF9oBI0Ghp8uxBPkn3sNvPzyy3DrrbdqK5IBl3dwGyAYP1mb7tJh4GfVYrQX/LY4XoTxz70GJiYm4JZbbjFV5Nb/TBU2Mjr5O2NrpTn7+V5jiy2Q8QuVoL/+9a/DD37wA/ta4RImDdx///3Nz0GqQhlwWeY2QDB+sjbdpcPAz6rFaC+MrZV27Offd999Wt90639WLenk74ytlebs51v5rVNssQUyfqESNHalnX/++fC73/3Ovma4RFMD+XwerrjiCvjoo4+aeXJCBlzOd2pEohzjJ2vTeTos/KxajPZy/PhxuOiii+DEiRNWu3F+FxpAbD/72c/C+++/b9pb+JFJ0PjmOsp1P6oc7t/J3xlbnVbt5yG2f/EXf+Eptip+oRI0Nubpp5+GK6+8Eqanp+1riEvAiy++CB/72MfgwIEDltro5LC6glQQkGWMn0573eeFjZ+upcJeENsVK1bA4cOHdbtxXgcN7N27F8477zzDR3W7yn6kyp3KsB6BH1UnY6tqx962wHZyclJb0Cv85iGYOIIUF0zrlpMnT2rzqXJ2ZE8++SQsWrQIvva1r8FLL71kvId57Ngx4EWvAwyYzz77LNx5551GAN23bx/j10P2EjX8VJ+X/R19c+HChYZv/vjHPwYc4V0qlXix0MHRo0fhueeeg7vuuguuuuoqI57J+pR1bSdGdlsO9+v2eIytPTtWsUWStuJNp9iq+IV+By0uP/785z8DGsxXv/pVuPbaa2H9+vWmZd26dYCLlzKsa82aNZ7WSbXTi+Ndd911gM8+MBDgj7paQzmCrvtR5ezKGL/1hm12Y59RxE+2D9Ve3nnnHcM3t2zZAmvXrtUu6LO46OSUDPdfvXq17XJUnZTM7+Nt2LAB8Jmz8M2g/I/CT8h0Pu0WW7/1qbOnoO3lmmuugaVLl4KKrU6flK67keE+sv9FhqBF49UGyvlBKISPV9eAU10zfvafG1K6Zn2yPuWYhGm2F/9vOGSd/+Y3v4Fly5bJWUaawsGpDCtmglZULStEFjlVMlVOBYCPV9cApTNKxvpkApN9CNNsL8ESWL/HTyZoxcP6HXA+PwXwDkGVAy4HXNViKJugZFgP+5+qTfqiZtD1yQSt2As7kKIQJjDjrsislXoO24tZM1RQpWRYE+uT9SlrYNDtJVSCRuW7mXzdatJ9qk5Khu3BEXDCKOQ1Vc6pjI9X81TXrE/Wp+yzmKZ8k+2F7SXq9oJvLeAgMTvtpGyekqn+ENrXrLCR6gmLbSboD0y6oUClZCrgQse4pso5lfHx9HbN+tTrhe1Frxe2F71ewrCXUAkauzLwpHGx+nGXl1kzlM4oGdbE+mR9yhpge+Fn7LI9YJqyCUqGZTm+qNp0p89Qu7g7GQMDrr9woZyEkrE+WZ9q+GB7YYK2YxNsL8HaCxO0Yp18BagohK+ouYfHbBKO77I4wAcb4DmemY2XskFKhjUFrU8maAW/oAHg4ykA8AUBXxCYTYIvCCweA0aNUDiemY2XwoiSYU1M0Io+2cAUhTBhMmGaTYIJkwlTYxXB32H2e7wOlaDx6oEaMYhyHlXNo6rFVSbbC/uDbAsiTcUQSoblOb5wfBF2hOuo2Uuoo7ijqBB2WHbYKDss2yfbJ9tnywb63R9CJWjsIxHGpu0vCeGhfL93mfD5mS2NskFKhjWxPlmfsgbYXngQnGwPmKZsgpJh2VC7uDs1HuUcAFEL7T8KVEqGtbA+23WJW5TOKBnrk19bU62J7YUJ2o5NdLIXJmhFm0xgikKYwAwCN2ulnsP2YtYMFXQoGdbE+mR9yhoYdHthgpatgQOEoo36JuUklAxLc8A1q5TSGSVjffIdu2pNbC/9fcfOBK1YPBOKohC+g+Y7aLNJOH4swITS34TC8dPsLJTNUzKsKVSCxsZFbVh7v48K5PNrjQAVzkHZICXD8qxP1qewI45n7A+yLYg0FUMoGZYPdRQ3GzQbtDBieU0ZLSXDOpgwmTC7tSW2F/1Xmygfo2SsT+/1GSpB4y28cCZzx0A9h7tMzJqhdEbJsCbWJ+tT1gDbC3c5y/aAacomKBmW5fiiatOdPkPt4u5kDAw4D4pRzZ0DBBOKHZtge2F76WV7YYJW0OMrQEUhfEXNg8TMJuH4LosJkwlTNSfKJigZ1tPv8ZoJWrGWKAH++9//HoaGhmDLli1ty5133gl33XVXW57YB/NRLrbV9S233KKVdaoz6ONZnQPmW8nwXKnzsypH1UnJ+Hh6O6N0hjIrW3KjT6s6/fIHPA/Vt3CbOnfq/Kh2UnX6pU+vz6/TOfDx2mO8sK2bbroJli9frrCU825zOxc88/CodgrIraTKOZVh/VEj6IsvvhgmJibalp/85CeAi5qP25QM5S+88ILtclSdlIyPZx8j1ifbp+rXlE1QMva//vE/mfs68aZX/McE3eGCAO+gly1bpmJDXtRQ4ETtAgTbqvtR50DJ+PxYn6o9sb1wl7odm2B7adnLPLxbxddicMG0bjl58qQ2nyrnVIbHj9LxcIj9kiVLTOffL+dnhTufH/uDGguc2gRVLmr+zv5g5gDGLzz+4ztovoNWL26NbeoqlpJhYQy6uh9VzqmMj8d37KqtUbbE9sL20kv2wgTdgVC4i1s1Zx6zwBcg9myCCZMvWFWLoWyCkmE9g+R/TNAdAGeCVl2LCXqQAoSMPhU4ncoGLeCyPusaYHvR92So/sAEzQQtx4xmmh2oOwdqKqzD2xCsT9anbCuYdmoTVDmsly8gVU0713XY+mSC7mDQfAdtz9jDNmi5tVQgcyrj89MTLetTrxe2F71e2F70elHtZR4qiidf/9/m1awwHKGXcrkMS5cuNckpnVEyrBdHRcrHEWmqnFMZH8/7yfMZP/4YiPBZXFO+yf7H/ifbil17YYLuQJhM0PaCMQckDkhuApJcliI+pzK2T7ZP2cYwTdlS2PbCXdzcxS33CjfTwoibGVKCkuFu/AxMUlYjSemMkrE+9V2BlM4oGeuT9al6Z5TthQnaglBee+01uPrqq6FQKBgzieH6sssuM7qnEWAKVErGAYIDRC8FCLmtlF07lbE/sD/INoZpypYGzV6YoC0I+siRI3DuuefC+eefD2effTYsWLDASL/77ruGPVFGRMkGzcAMZTX+KL04lbE+OcDLNoZpypbYXtheeslemKAtCBpBxK+ZzJs3z1gWLlwIjz32WBNbKghQMg4QHCCaRtRIsL3wRB52bILtZXDshQmaIOjDhw/DBRdcYBD0Rahk4cUAACAASURBVBddBO+9917TjygnoWRYAT+jbaqxmaB0RslYn3zB0zSiRoLtZXAITMaewt2pLOz4wqO4O4zixm+kzp8/Hx555JFm1xmCTY38o2RYll/TsTcynPXJr+WJACvWlE1QMvY/HsUtbEiso2wvkSNonBjkZz/7GeAzYHUpFouAi5qP205lWPbAgQOWdT7++OOwcuVKOHToUNs+fh2vm/M7duwYnD59unnBECUDw7ZlMhl4/vnnTcuzzz4LuHgpw7qefvppT+uk2unF8cbHx40vtvVCgBBtxPWrr74K//mf/wl79uwxLdlsFnCxK8P9//3f/912uage70c/+hHMzs42fRP1FpULcvxKIA5+nZ6eNi2ILS52Zbj/5OSk7XJRPd7Ro0fh7bffjgx+keni3r17N6xZswYuueQSWLt2Laxfvz6wpdeOh3rCQWs333wz7N+/v2lMcnePnA6iS/2+++4zsMNHAVdddRX81V/9VWBLrx3v85//vNErc/nll8O//Mu/RAI/yl4Q28WLF8OiRYsMTFesWAG86HVw5ZVXGoNJBbZhd5Hi8TG2rlq1Ci699FLYsGEDbNy40bRgvhMZ1oWx2ss6qbb4fTzkArTzL3/5y0ZsDRu/0AkarzDvvvtuuO222+DgwYNynOB0Bw3s3bsXrrnmGvjud79rBHmr3f0kaLx7v+KKK+BLX/oS42cFgEU+4rd8+XIjMKIfWP38xE93THG8arVqYHvDDTfAr371K92unGehgX379sHnPvc5g7iEPtVdEXMr3J3K8BjieOibGFtvv/12xk9VfodtxG/16tXwve99r6lPtYhTjKhyMn6YDp2gh4aGDIJRT563u9MAvvaFDrhz507LAsJh1R0oQ+lW9pd/+Zfw7W9/W62at7vUAOJ34403whe/+EXLEn7ipzuoOB5jq9NO93kffvgh3HTTTXD99ddrC3XrY2phqhzuK/C75557OLaqyrOxjfht3rwZHnroIW0pCgenMhk/TIdK0Pg8Dw2Yf+408Mc//hEuvvhiOH78uLYi4bCq0KkRiXLf+MY3jO4ttV7etqcBxA9f43vxxRe1Bf3CT3uwRoDftm2bcWdvtQ/nd6eBP/3pT4CPfXDcgfoTfqTm47ZTGZZFe8HYit20/HOnAcQPH7uWSiVTRU4xosrhQWR/D5Wg8c7h5ZdfNp04Z9jXwMMPP2x5pScDLtdMGUo3MpxZjfGTNeo8jfjh8zXdzy/8dMfCPDweY2ulHfv5Vth242O6o1HlBH74WIJ9U6c9+3mIH3Z1qz8KB6cyPIbs76GN4j5z5gycddZZls9gVGXwNq0BHI2OAxyEYchrP0aR4vNJxo/GxI4U8fv0pz8dGH74fFK2ETmNo5Bx9jz+eaOBmZkZ4y5M1jGmqbcvnMqw3jfffNMYhOhN67kWxA8H5gaFnxyvQyNo8ZUoht8bDSCoy5YtMxkRGpUMuGxkToMAlsNJXD7xiU9403iuxcDowgsvDAw/xFC2BTn905/+FD71qU8xKh5p4A9/+IPx1oWsY0y78T8KPySUz3zmMx61nqtB/JYsWWLyF7/wk+N1aF3c+L4zEgr/vNGAIGhdbXKXiSwXAUPOE+lOMgwCn/zkJ8XuvHapAcQPCVr38wM/xNfqh++1MkFbacd+viBotWQnH7PCiCqHx/j1r3/NBK0q28W2IGi1CgoHpzI8huzvTNCq1nt0mwm6R4FrNJsJurfxo1rPBE1pJ/oyJujoYxT5FjJBRx4isoFM0KR6elrIBN3T8AETdG/jF4nWM0FHAgbHjWCCdqy6yBdkgo48RGQDmaBJ9bCwGw0wQXejpejuwwQdXWzctowJ2q0Gwy3PBB2u/vvi6EzQvQ0jE3Rv40e1ngma0k70ZaESNI4Yw+CAC6Z1C34FRZdPleskw5lZli5dGn10eqSFqG+cDF+Hkx/4/fznP2+O4q5MJGDTLZtay5h51h2tGisFyEzov12r3V9kzmQgMyM2LNbd7GNRtJVdg+JoFro8Gxx/CYWxAjg4o+ZrVkHhR/l7Pp/nUdwtI3CdEgStYtspRlphRJXDY+CX9/BjHfjrS988Mwv5kTjEtichd7zWJT7OfRPxw9nEgsJPjtc8irtLeKO+Gzqt1WtraFi6n9NXAbCc/JpVZTwFuTn1CDWo1QBq1SpUZR+qVaHazKjvY5RsyweAMzWAD2rSvrgXblehdigFqenG8c7I9UltmJb2EdlYZ+NXO4OJen1Yp1GvEBqiMuR3xGHojhQU5Xws1VZPq04k6NxITiFo+RxrgHsbOmkcU6gC8ePXrBRF98mmIGj1dNz4H5a1+smvWfWjb5b3xCFzAs++CvnhVNsFtB++GeodNJ4mZSgo9yPA83vQVu7lLD9cgk5C9vU6yRlEh7FjLgfxe1OQmyxA5sEEFKoAtZk0xB7Nw9RkBhKjJajN5SA1XjHy46ON/EeLBokVRzZBbHcepsaTMDQ2a9yd5vGK+SDW9zmDoOX6YtsLUJVVpyHo4ogg2yKkRooAtQqUDk7B1MEsxO9IQUnmWrxgqAG0yrQqL40mIH8at4uQ2jVltLcu1RB04xxRXg+WNajM4DGnIDu8GVIz9YMyQbf022+pcAm6D32zaSAlSD+YhXJzG8AP32SClhTMSWcaCJegE5DcVycdJJ5ZJK+5HCSeqbuOuIovPZqEqQYJ4t017oMEXRwZgvRkvXxmW9wg8+JIorFvg0zncpB8oeGKDfItjiSbd7elJ+KQlzsKuiFoQ9U1KD6agNwpvd51BA1vZCG5vwq1gylIt32fpBuCrh+nNp2CxHgrtDBB6/XfD7nhEnSf+uaZWchui0Fe9VsffJMJuh+8MORzCJegNV3cpjtHgBZBV6F8vNK8gy49Gof8XP0OfPb1WeNOuEWMDYKu5CHZIHw4lDTuoFv14Z1undibMGgJWhB6EZJ4Bw0A5fEEpKblW+dmDUai1Q45vwzZnVnIjqTbute0XdzShUX5hWT9UcCpHCQaPQWiViZooYn+W4dL0H3om2eKkH4wDcW2LjNhN977Zt8TdLFYhKeeekpo0OhSj0YXt/OBA82TiUjCT4LW4df+DDoOW3emIT3aWCbKzbtjVI+4g4ZTeUgMZyA7FofEPmmfRn5uPAXxUdHFrXRHAw7YikNqTxbS2zbVn0FL9cUa5ZpwTKdg87BoU9Zw5upkArZuT0NqVww2IUG/noG/uTkGqUa7C280SzcTeoIGqO6PwSZxwdDcuwK54a2QlPUAJcjcH4PkaBLiW+KQm5uFzPWbIDYi6QqgOUisWZWU8OMRk3iGqWKLh/V9qs+ZTHNAYWxHFqbkng/pvDFZGssoF0HKDrrN00XItmEAUDuRh/T2OCT2lJqPJKqHMpAcjkPqF62eDF11bvP8JGgdfu3PoPvPN0ujm2Boh/DtQlsXN2LltW+GStDoqNSk3yjH4C+eU8trqpwsu/vuu+G8886DFStWGN9FRRl+LMNqUJNbh+i+vKZLEgsbg5OqUJPHYSiDkXAwgjHYxxhs1P0R/dpTELSMj0j7gd/09HRzFLdf5xTleiv7UpDVELrTNiNGYXwsQ/VNtBnfP5Yh9258UIbsA61HH6AMFmxdIDUG9Al/q9UH3Bn6ltOYgYMI20b5lyC9PW/0zNQmsccEo3jBGAeBu8/uTmgGOTpF0lxOELTwR7GWY6TIE+tuZTr8Bv1jGV77JuKn+9JctxgJTMWaKof7yPHak69Z4afy1AWv7HDB/F/+8pdwzjnnwLx582DRokUGUW/fvj2aBF0rQXpbCvI4GGlbAgqn2wc31QcjFSH1ha2Q3j8F+ZGY8hzS7KBB5CCo+MUVFQfcPnDggDZfxkgtJ8t0+H3jG98YWIKuTmchM1Fu3ol5ga8gaBUHL/BT66SwXblyJfzjP/6jv69ZyQRt9LBsNQgVB/2ZBwtiT0oZcttwgGDd3zKvA8DxNCT21/s4i9LYBsSi/MwQxHYkIPZgEnInavUBi080XpYTj16mUxCfaPSRKu3xAk+5DkHQFA5OZapvIn7f/OY3B/ZjGX74ZqgEjYYkmF02KjlNdbFhV/Xy5cth/fr1bcu6desAF5E/f/58g6CRpPFuGj8IH8k76OkUJA81zv54GuL7cBCTeHYJUB+MhKN3Gy/f4Ghl4fyy0gJOY4DHzz8Kfcvr1atXa/NVjOQyqkzFD9+55q9ZeQcy4rdw4UItTl7gZwdbfOfT169ZKYRYGR8y7mr1gwXrjzpqlRIUDxYgt2Nz/Q4YypDdlYdqbQpSiv9VT9THMQDMQmY4C2VpHIAYmAiynyvt8Q7Vek2CoGUMMK36mCy3I9P5Jn9u0jsUET+8+VF/FG86leExZL51/R601bNkuYGvvPKK8T3UBQsWwOLFi43n0VblVCX4u63p4p5JQfIXjUFDjats82CkIqR2NF6vOZWDuOlZpL+t1tWOAd7qgkcGXC4rYyTnY1qW6fCTn0GrZXnbvgbEHbSupFv81DopbMfGxvx/Bt1GiDWY2lEf4Gc5WLBagOTOApSrNag1BgjiOZX3JCH7jDqSvgrFPeK5ZBlyD+JAviIkxQU13nnjnfOp1lsB1YmEr71ggqApHJzKVN9E/ORn0Gq9vG1fA31P0Bs3bjSer6Hx4A8DRGQI2jSopz5BRWZPBuI4UhCfeZkGIxUhdf1WSO7OQno4AQXTJB32jcBtCT8JWodf9Am6BBl5drPtzmb4cotLt+XDImgVW2yv74PEmgP4khC/fyskcVAh/qwGC4rHTpM5SH9nqE6wuP/pPMRuaX8PFrOrB1MQH8FR9nFITNZHoM3uiUFiLAup4XTjffcqTO2MQQr9fEdemVzGaI1nf34StA6/yBO0NEjQmIEw4r7Z9wStWnp0CFptWbfbjVd/ut09gP38JGi1+Yhf9Am6CKl71Vm91DOJznZYBK3TgO8ErTuok7xKHlJ7/B2B7aRZahk/CVo9Fm5HnqDbelB0ZxCtPCboaOHRRWvKUBBX/V3sHcQuTNCqlouQuicLs8qUmupeUdlmgraJRLUI2bEClK1fYbdZoX+7M0ErusXn/5OtmQfFdLfKXpHZDJWg8W7IzrBv3F8sWA5fl8KPXog8sabqFOWsnplGBpkeaoggaKF/eY0yeVukO2GEcrGvvMb86L9mVYTULUnIG1N5TkFpLtqRXBC0rGeR9gM/K2zxmL6/ZtVDfuVFUwVBCzzF2o3/UfhF/jWr6RTEdrdmHoy6byJ+PfuaFRO0Fy7svg4maFWHvdnFLYK3vGaCVrHtrW0maAWvHuziDo2gUXUiGChqbG5So0itBntRdaLMqlzzoJywpQFB0LpCFH6Ihe7XCT9+Bq3TmvM8xI+/ZuVcf1EuKQhabWMnH3Pim3iMXngG3ZrlLw3pPcX2D92oigp5G/Hr69esVP2i4TFBq1pxt80E7U5/YZdmgg4bAf+OzwTtn26DqJkJOggt9/kxmKB7G2Am6N7Gj2o9EzSlnejLmKCjj1HkW8gEHXmIyAYyQZPq6WkhE3RPwwdM0L2NXyRazwQdCRgcN4IJ2rHqIl+QCTryEJENDJWg8XkwNdwf5Rg8cK0uWI5HcZPYBiYUBK1i1Ak/q9c1KJtAWfRfswpM9Z4cSBB0UPhZ4Y7H59esPIG0WYkgaBXbTj5mhRFVDo8R+desmprpjQTiF9oobgS0E+BM0NE3JCbo6GNEtZAJmtJOb8uYoHsfv9AIGlUnruys1Ei9pmM1GpuqE2VW5azawPm0BgRB6/ai8EMsdL9O+EX/NSvdWUU3TxC0roV+4GeFOx6/Z6b61CkrgnmCoNWmdfIxK4yocniMyL9mpSoi4tuI38C9ZvXWW28BftaOf95o4NSpU8ZnP3W1+RHgX3/9dbjooot0h+M8BxpA/D7+8Y9rS/qBn1XwxwZMTU0Z323XNoYzbWtgbm5O+447RbROZdi43/72t4Cfg+WfNxpA/C6//HJTZU4xosrhQWR/D+Rzk+qZiQbipyfx5PnnXgMvv/wy3HrrrdqKZMDlHQQOcp5IdyO74IILGD+hMJdrxA+/q677+YWf7liYh8fDb7bjRTT/3GtgYmICPvvZz5oq6sbHTIW67PHEb8Mzfjrt2c9D/G655RZTQT/xEwcLlaC//vWvww9+8APRFl670MD9998P4nOeajV+BfhVq1YxfqqyHW7/3d/9HfzDP/yDtrRf+GkP1iBoxtZKO/bz77nnHvj7v/97U0E/AzzHVpO6HWfcd9992tjqJ36isaESNHbFnH/++fC73/1OtIfXDjSQz+fhiiuugI8++khb2q8A/9JLL8G5557L+Gm13n0m4od3PB9++KG2kF/4aQ/WIOgXX3zRuIs+ceKE1W6c34UGEFt8dPF///d/pr39DPDHjx83HkExfia128pA/LD34/333zeV8xM/cbBQCRob8fTTT8OVV15pvLYjGsXr7jWAgfRjH/sYHDhwwLKQnwH+3nvvBfwqGb52xT/7GkD8zjrrLHjkkUcsC/uJn+6g4niILT57O3z4sG43zuuggb1798LZZ58N3//+97V7+h3gMbauWLGC8dNqv3Mm4oePetBHdT+/8cNjzkNnxBGkuGBat5w8eVKbj2VKpZIxwk0tR9Wpyp588kljUMrXvvY1wLsyHCF87NgxXix0gAHz2WefhTvvvNNwwH379jnGzwp3FSMZX1WG3etoyLhm/DrbrcBv06ZN8KlPfQr+9V//NVT8ZGwxLfs7du/Nnz8ftm7dCj/+8Y+NEcLo87zodXD06FF47rnn4Ctf+Qp88pOfNLCV9SnrWvUjL2QqfhhbFy5cCBhbGT89ZrItC/zuuusuuOqqq4x4FiZ+od9BiyuTP//5z4DG9NWvfhWuvfZaWL9+vWlZt24d4OKlDOtas2aNp3VS7fTieNddd51BhhgI8EddyaEcnVb3o8rZleFgP3yO+vnPf954qR/fG+RFrwMcYYt3Nv/8z/9swELpOij8ZPtQ7eXNN980sMXHKFaY4hsZuOjklAz3d1KOqpOS+X08fB1HxjYK+L3zzjtGbN2yZQusXbtWu2DMxUUnp2S4/+rVq22XwzpxnMPSpUtNZf06Xjfnt2HDBsCLUhFbw8YvMgRNBQghowKZU1nYAIhzw7XTc6DK8fk5e88bdWr1UwlM7Efh4FTG+OlxYH3q9dJL9mI1FwaFbS+dH56H7mfn/JigA7rDlIHiAC9ro56mjJaSYWnWJ+tT1gDbi/89ZrK+nfofE7SsxVZa1icTNAf4lmVIKSrIUTKsQjYwqUruIfDgipr1WdcAZYOUjO3T/l2dX/pkgpa9uZWW4ycTNBNKyzKkFOWUlAyrkA1MqpIJmglaNodmmu2lqYpmgvIxSoYV9Io+maCbcLclZPzmIdhhfCzD6kst2B4c3SiMUF5T7XQq4+PVPNU165P1KfsspinfZHsZXHtx8iXEQbMXJmi+IGCCVj6lyoTCF8h2LjLYXpzZCxO0+RPO6gUId3H3UJcQgqf7iWCik2Ge3GUi70OVcyrj49nHiNI165P1KfsspvvFXriLW0W2vi3HayZoJjCtlVBBgJJhZbKByZVT5ZzK+HhMYLKNYZqyJbaX6NgLE7RqufVtOX4yQTOhaK2ECnKUjANgdAIg4qT7MX698RpSv+PHBK3zzvYbHCZoJmitlVBBnJJhZfIVoFw5Vc6pjI9nn4QpXbM+WZ+yz2LaL3thglY1Xd+W4ycTNBOK1koop6RkWJlsYHLlVDmnMj4eE4psY5imbIntJTr2wgStWm59W46fPIqbR3E3A5oIbLimRqZSMizLr8mZR2dSOqNkrM/BfQ0J7UL2SZHuF3vhUdzmOKH6OxN0F4Ry5MgRUJdisQi4qPm4TclQjp+GtFuOqpOS8fHsY8T6ZPtU/ZOyCUrG/mftfxMTE7B48WLTRUi/XIB4cYHFXdwdumSxG2b58uWmr11RX6yiZPg1K/z6i5df5OLjsT5Ve6JsgpKxfXr/tTz2d/2XCfFrVvF43NTPK3oKTIJGhtwFLO9DlXMqw/rDPB4TdAcAnDwnoYwhbMD73aD5/OoaoGyQkrF9RucZLeKk+zF+gzMKnwmaCVoXA5rdTjohB4jBCRAy/hTuTmVYf5h3KHx+dQ0wfvqLobDtkwm6Q4DgO2g5hHV25rANWm6t06BDlePz0wcySmeUjPXJ+pR9FtNsL60bACZoJmjVP4xtykkoGRbmOyKzSimdUTLWJxOYak1sLy0Ck3VD6cWpLGz/41HcHUZxO3kVgEchOps834tRj8IRcU3h4FSG9fJrZObXQ1if+lei2F70emF70etFtRcm6A4BlwnaXjBWDQy3xeLUKalyfDy9o1M6o2SsT9an8FexZnsJ74aDu7g7dMnyM2i5E6meFo5rltRzuIvbrBlKZ5QMa2J9sj5lDbC9DFAXNwLvBvB+J7B+Pz/EXvejbIKSYV1MKGaNUjqjZKxPtk/VmthemKDbbIIKuP1OYP1+fujsuh8VBCgZ1kXZCx/PrG3W5+AEXBl9CnenMva//opn3MXdgVCYoOWQUk9TwYMDRH8FCBl9CnenMrYXthfZxjBN2dKg2QsTNBO06h/GNuUklGzQHEhWHqUXpzLWJxOYbGOYpmyJ7aW/7IUJmgla9X9jmwoClIwDRH8FCNk4KNydythe2F5kG8M0ZUuDZi/z8HkhvteJC6Z1y8mTJ7X5WKZUKsGSJUtMcqpOSobHp45n1U6qTkrW6Xj9fn5B65OPZ/YxN/bJ+mR9qjE7SvGT7dOdffIddIc76JmZGbjuuuvUizzyKo+vAHnQj2owlE1QskG7Y5D1RunFqYz1yXfsso1hmrKlsO2FCboDQfMgMdWco23Qcmspx3MqC9th+fzqGmD89ETL9qnXS6/aCxM0E7Qc85vpXjXo5gl0uDLm89MHMg7wer2wvej1wvai14tX9sIEzQQtc1oz7ZWBNStkwjS60mR9iDSla9wHnzHqflQ5pzI+nr8BV8bRKUZUOcavv/Bjgu4QALmLWw4p9TQHCCZM1Soom6BkTCj9RSiyXVC4O5UNmr3wxzL4YxnNQRLCaXBNTZBPybAsjtyU6xJpqpxTGR+PP+4g7EusKVtie2F7EXYi1lG2FyboDoTCX7NqfY2qFwxatBHXlOM5lWG9fAFizyYoXbM+mTBln+3kt4NmL9zFzV3ccq9UMy2cppkhJSgZ7sbPTCVlNZKUzigZ65O7gFVrYnsZnEdMTNAWhPLaa6/B1VdfDT/96U9h2bJlUCgU4LLLLjPuntBhKCehZBxwOeBywG3XAF/QtesDt6gYQsmwLOuzf/TJBG1h0EeOHIFzzz0Xzj//fDj77LNhwYIFRvrdd9810KechJKxAzFBq+GD7WVw7ohk7Cncnco4vvRXfGGCtiBoNPQtW7bAvHnzjGXhwoXw2GOPNf2LHUjvCBwg9Hphe9Hrhe1Frxe2F71eBs1emKAJgj58+DBccMEFBkFfdNFF8N577zFBd+h+GzQHahpEB71wwOWAK9sKpp3aBFWO/U9vZ5TOKFnY+uRR3B1G5d55550wf/58eOSRR5oOhYBSI1MpGZblUcA8ClgEhU62xPbCo5xlW2F7Gaz4GTmCxolBfvaznwE+A1aXYrEIuKj5uO1UhmUPHDhgWefjjz8OK1euhEOHDrXt49fxujm/Y8eOwenTp5sXDFG6IIgaft3oU7UnCttO9tLN8aKMH3VBgF9JwsGT09PTpuXVV18FXOzKcP/JyUnb5aJ6vKNHj8Lbb7/d9E1Kn5TfOpVRx2P8Ottn1PCLTBf37t27Yc2aNXDJJZfA2rVrYf369YEtvXY81BMOWrv55pth//79zWCgdqGJ7SBGdTJ+3dtrFPETtqLr0kNsV61aBZdeeils2LABNm7caFow34kM60Jf97JOqi1+Hw9jyaJFi+DLX/6y4Zs6fQpdI5niovs5lemOx/htNGyzG/uMGn6hEzQa4t133w233XYbHDx4UGernGehgb1798I111wD3/3udy0dXeewojqnQUAux/gJbdpfRwE/XavFBR3exaFv3n777fCrX/1KtyvnWWhg3759sHr1avje974X2mtPjJ8FOF1kRwE/bGboBD00NGQQTBc64100GsDXvjCA7ty5UyOtZ4mAq+4gE61TGeOnas7edtj46Vor7OWee+5h39QpqMu8Dz/8EDZv3gwPPfSQtoQX/qermPHTacV+Xtj4YYtDJejnn38ebrrpJvua4xJtGvjjH/8IF198MRw/frwtX2wIhxXbYu02QDB+QpPu1mHhZ9VqtBfEFrtp+edOA3/605+Mx3alUslUkVv/M1XYyGD8rDRjPz8s/ERLQyXoG2+8EV5++WXRFl670MDDDz9seaXuF0Ezfi4AU4qGgZ/ShOYm2ssNN9zAvtnUiLsEYotd3erPT4Jm/FRtO98OAz/R2tBGcZ85cwbOOuss8tmpaCSvO2sARxfjAAfh9PLaj9e6GL/OmNjZI2j88PmkbCNy+s033zReLbTTft7XWgMzMzPGAFhZx5h2OlKbKof1Mn7WWDiRBI2fHK9DI2jxlSgnCuMyZg0gqDhnuBoEcFsGXJZTjt5JxviZMXCTEzR+iK9sC3IaA9JnPvMZN6fDZSUN/OEPf4AlS5aY9N3Jx6wwosohjoyfpHwPkkHjJ8fr0Lq48X1ZJBT+eaMBEeB1tfnRxc346TTtPC9o/DCQW/1+/etfM0FbKcdBvgjwalFxUaTm47ZTGZZl/HQadZ4XNH5yvGaCdo5bpEoGHeCZoL2FP2j8mKC9xY+qLegAzwRNoWFfFjR+TND2MYp8iaADPBO0tyYRNH5M0N7iR9UWdIBngqbQsC8LGj8maPsYRb5E0AGeCdpbkwgaPyZob/Gjags6wDNBU2jYlwWNHxO0fYwiXyLoAM8E7a1JBI0fE7S3+FG1BR3gmaApNOzLgsaPCdo+RpEvEXSAZ4L21iSCxo8J2lv8qNqCDvBM0BQa62a0DwAAIABJREFU9mVB49dG0LiBwQEXTOsW/AqKLh/L4Aw5+AqBKqfqFOWWLl1qX1tcQqsB1Cl+zEDFAbcp/LCcrowd/CoTCdh0y6bWMmaeNUnb6EoBMhMVrYjMnMlAZobcA6CbfagqPihDYTQB8Z0ZKJ6mdpRlFSiMFcDBGRn+FyR+VrijLeCX2y6//HL5xDjtQgMY4PEjQKqfdfIxK4yocip+fembDSwq++Od40ATN+e+GTR+crzmUdxNAHs7gU5r9doaOq3uh3dRVndSnWTyHXRlPAW5OfUINajVAGrVKlRrkqxWhWozo76PIW3LB4AzNYAPatK+uBduV6F2KAWp6UadZ+T6pONMS/uIbKyz8audwUS9PqzTqFcIAaCyLwW5NzCjCMnhAlQlWa2tnladABXIjeQUgpbPsQa4t6GTxjGFKoLGzwp3PE2+A5PA9iAZ9B2YjF8/+qYByak8pB8casWBBk5++GbQ+MnxmgnaAweMQhVBB/h2gk5C9vU6yRlEh6/YzuUgfm8KcpMFyDyYgEIVoDaThtijeZiazEBitAS1uRykxitGfny0kf9o0SCx4sgmiO3Ow9R4EobGZpEyIb89CbmDWN/nDMeU64ttbydR0BB0cSQFRQOsIqRGigC1CpQOTsHUwSzE70hBSeZa3A/l4ylI7Cu3QVwaTUDeuKsuQmrXlNHe+g4agm6cI8rrwbIGlRk85hRkhzdDaqZ+0KDxY4Jug9TXjaADfDtB96NvliE/moeyfKHeQNAP3wwaPyZoX90xnMqDDvDtBJ2A5L466SDxzCJ5zeUg8Uyd2MRVfOnRJEw1SBDvrnEfJOjiyBCkJ+vlM9viBpkXRxKNfRtkOpeD5AsNomyQb3Ek2SBcgNITccjLHQXdELQBVQ2KjyYgd0qDG97BnypAcnu+/a74jSwk91ehdjAF6bbvk3RD0PXj1KZTkBhvEX/Q+DFBa/D2KSvoAN9O0P3nm+XxFOSxx07j4+CDbwaNHxO0T44YZrVBB/h2gtZ0cZvuHAFaBF2F8vFK8w669Ggc8nP1O/DZ12eN7mTT3W4lD8kG4cOhpHEH3aoPoDhSJ/YmBhrnbRF6EZJ4Bw0A5fEEpKbVW2eA8mS+eUdd3BWHgtElLmovQ3ZnFrIjaWh/2q4naHFhUX4hWX8UcCoHiUZPgagxaPyYoIXm/V8HHeDbCbrffLMKxT1pSI+mIT28GTYPF6B1mYtYeu+bQeM3GAQ9k2kOWortyMKUfHel+GRpLKMEWmUH3ebpImTRSHCZqJtI7UQe0tvjkNhTanZ7Vg9lIDkch9Qv2s1IV6WbPD8DfLFYhKeeeqrZPAzu7QQdh607G7oQ+tAQNJzKQ2I4A9mxeL3bWOzTyM+NpyA+Krq4le5oqEFxNA6pPVlIb9tUf/Yk1RdrlGs2cjoFm4dFm7JQrAJUJxOwdXsaUrtisAkJ+vUM/M3NMUg1cCwYz5wbNTTrjkFsrIWnqL+6PwabxAWDyMRn0MNbIdlmFyXI3B+D5GgS4lvikJubhcz1myA20m47fuLXbF4jgfgJglaxxV3kAK+W9WR7wHzTzwDfCb/KeB/6pjBCzUU4irz2TT/xE6cir9sIGh210+TrGDyEU8trLCc+miDnd6pTlLMa1CQ31nFaBu+DMmQfaHWvgjIgqXW31hg0JO6WavVBPUYb5DRm4POPtpHEJUhvzxt3f7VJvCtDSykYz1px99ndCc1AKsdnZyooAryKA25T+CEWujKyTdx9991w3nnnwYoVK2B8fNywF8TdV/xMZxhShsWU1TiILCsTusvm+Ymfii+FLe7r+8cWBsw3McB/+tOfNvmZjAOFESVTfTMQ/Fzaut/FvfZNP/FTscVtOV6H+jUrXwO8HASMATpbDULFgUXmAUl4t1aG3DYchDQF+ZEYZF4HgONpSOyvj98tSs9P0cDKzwxBbEcCYg8mIXeiVh8U9USjw1PcGU6nID7RGP+rtMdrI0VQ8XU3/Gyhuhw4cMCUh/vg1Tcu6v6q7Je//CWcc845MG/ePFi0aJFB1Nu3bx8MgtYAVZ3OQmai3Owl0exiOwvxw1dxdFi4xU+tU8ZdxXblypXwzW9+09+PZSi+UBnvb9/EAL948WITtjIOFEaULBT8bFt3cAX88M1QCRpVJ1jcSo3yLbe8D5aTuzpVGcp1P6qcbn9HeaYgUB+Srx+QVO9OrVVKUDxYgNyOzfU7YHyesSsP1doUpAT5NhpTPVF/VgowC5nhLJTlQUwSQScPNQoo7XF0TkQhDPCf+MQnYP369aZl9erVpjzcb926dcaiK6PK5s+fbxA0kjTeTV922WUDS9AEDI5FiN+CBQu0OHmBn4xxJ2zxfWxfPzep+EJlvL99EwP8xz/+cRO2Kg4URpRM9U3f8XNs5b1ZEPHDmx/1R/GmUxkeQ+bb/n3Nqi0I1GBqR30QkeWApGoBkjsLUK7WoNYYhITKKu9JQvYZdbQuDlQQgxPKkHsQBwsVIbmrPvDIuPPGO+dTrZHH1YmEMuJXhdvdNgZ4qx4JGXD5KN0a0SuvvGKQBxII3gng82irCzO5fk53rwE/8VNbIeOuYjs2Nub/M+gB800/A3wo+KkG1efbfuKnU50cr/uaoOuDhJIQv38rJBsDucRAJdOApFoJ0ttSkJ/MQfo7Q5AQXdOn8xC7JauMFASoHkxBfARH8sYhMVkfgTa7JwaJsSykhtONEcBVmNoZg9SeDMR3KK/q6JBxkedngN+4cSNceOGFgMEbfxjgo07QrRmUhoxHGrPyTCMu9OxXUT/xU9ssE7SKLe7r+yCx5gC+wfBNPwN8KPipBuVguzyZgvgDsdYjQgd1BFXET/x05zAYBK07cyd5lTyk9vg7AttJs9QyQQf4yBO0PLtZdQqSD5gvslQdhrkdNH5I0lY/3wna6sB283vEN4MO8FHHr3YwCbHmHADYA5mCorU52rUKz/cPGj8m6G4hrBYhO1aAsvk12W5rCGy/oAN8TxE0Ttg5srV9IpPAkOnuQEHj1/ME3UO+GXSAjzpBF3eJSYi6842w9woavzaCRkelhvujHIMHrtUFy0X2NauwUQ34+CLAqxh1wg8x1JWhbELgbvXMO+BT1x5OzF4mhDg40DxfuJCGvw4aPyvc0RZ8f80qfHUH2gIM8H69ZqXz3Wjjh+OBWjMABgqEw4MFjZ/Mt/37mpVDMHq1WNABPurvQbcTNL4Hr876FS2kg8aPCTo4/IMO8NEmaJyTPt42YLY0Gov0xXPQ+LURNJqpuAqzMln5llveB8tZdXVSdVLl5Po53b0GRIDXlaDwQyx0v17HrzWDUgJiW2KQOR7t5xRB42eFO9pC1LtIdfYa5TwM8EG+phN9/MqQHx6C+K40pHfEIK58jCZqWAaNnxyv+3cUd9RQ9rk9QQd4qwszn0+zb6sPGj8m6OBMKegAH32CDk73XhwpaPyYoL1ALWJ1BB3gmaC9NYCg8WOC9hY/qragAzwTNIWGfVnQ+DFB28co8iWCDvBM0N6aRND4MUF7ix9VW9ABngmaQsO+LGj8mKDtYxT5EkEHeCZob00iaPyYoL3Fj6ot6ADPBE2hYV8WNH5tBI2OSr1Sg3IMHrhWF/G6zdKlS7Uyq5GiolyUX9OxD2O4JUSAVzHqhB+FESWL+ijucNGwf/Sg8bPCFu0l6qOA7Ws33BIY4Pk1q3AxcHP0oPGT+ZZfs3KDXITKBh3gmaC9BT9o/JigvcWPqi3oAM8XWBQa9mVB49dG0Nhccddl1XT5llveB8tZdXVSdVLl5Po53b0GRIDXlaDwQyx0P8ZPpxX/8oLGzwp3PEPuIvUWZwzw/JqVtzoNsrag8ZPjdWivWb311lvG92+DVHQ/H+vUqVOwfPly7SnKgMs7dCJhqyCO+YyfrEn36aDxs8IWz+S3v/0t4CcL+eeNBubm5uDyyy83VebG/xg/kzp9ywgaPzleh0bQaGD46UI8ef6518DLL78Mt956q7YiGXB5B7cBgvGTtekuHQZ+Vi1Ge8Fvi+NFGP/ca2BiYgJuueUWU0Vu/c9UYSOD8bPSjLP8MPATLQ2VoL/+9a/DD37wA9EWXrvQwP3339/8HKRajV8Ezfipmna+HQZ+Vq1Fe2FsrbRjP/++++7T+qafBM342cfJqkQY+Im2hErQ2JV2/vnnw+9+9zvRHl470EA+n4crrrgCPvroI21pvwia8dOq23ZmWPhZNRTt5fjx43DRRRfBiRMnrHbj/C40gNh+9rOfhffff9+0t58EzfiZ1O0oIyz8RGNDJWhsxNNPPw1XXnklTE9Pizbx2oYGXnzxRfjYxz4GBw4csCzlF0HjARk/S7V3JQgbP10jhb0gtitWrIDDhw/rduO8DhrYu3cvnHfeeYAY635+EjQej/HTab37vLDxw5bOQ2fEEaS4YFq3nDx5UpuPZUqlkjFCUS1H1anKnnzySVi0aBF87Wtfg5deesl4D/PYsWPAi14HGDCfffZZuPPOO40Aum/fPsf4WeGuYiTjq8oYPz1OVvYbNfxkbDEt+ztiu3DhQsM3f/zjHxsjvNHnedHr4OjRo/Dcc8/BXXfdBVdddZURz2R9yrpW/cgLGeOnx6Vbe40afqHfQYvrmT//+c+AweCrX/0qXHvttbB+/XrTsm7dOsDFSxnWtWbNGk/rpNrpxfGuu+46wGeWGAjwR12JoxydVvejytmVMX7rDdvsxj6jiJ9sH6q9vPPOO4ZvbtmyBdauXatd0Gdx0ckpGe6/evVq2+WoOimZ38fbsGED4DNL4ZtB+V8v4rdq1SrASa5Um2H8WvE6MgRNGZiQ2SWNbsrhPmpA6qac07bw8Zy9d436tvoxfmbNsH2yvahW4dQmqHJ4DKf+52QODTfHs4ohfp2fF8djgnZhYF4AIDsRZShOZYNm0KzPugbYXpigZV/AtFOboMphvUzQqqad61rVJxO0CwNDw9X9/DJoPp5O284DBOuT9SlrgPJbpzKs3ymB9bt98h20bH2ttGwvTNDsQC3LkFIckPQXX6gi2YEklUXuDqXfAzyfn2x9rXSv2CcTdAszOSXjF9rHMqjJ+nF0oyAIeY1lrMo5lWH9fDz9l8qc6Jr1WfPUdlmfrE85BmKainW9ZC/4wR27X0LspfPzIn4yQTNBM6Eon1LtlwDoRYCQyYHSi1PZoAVc1mf9ZgDthQnafGOk+gN3cXOXpdy70kyLQNLMkBKUDHeTu2ikYs0LATlPpKk6KRkfT98VT+mMkrE+WZ/CJ8XaL3vhLm6h4fa1HD+ZoJlQ2q2jsUU5JSXD4rKByZVT5ZzK+HhMKLKNYZqyJbaX6NgLE7RqufVtOX4yQTOhaK2ECnKUjANgdAIg4qT7MX6tiSBk/VB6cSpjf7C2QSZo2fpaaSboli6MlKwQWeTUKalyWD8fT9ZyPU3pjJKxPq0DIOpN92N9MkGrdkHZBCVz439M0CoK9W2ZH/gOmglTayWUU1IyNw6L9ep+fDwmFNUuKJugZGyf9n3ML30yQatWXd9uI2hUPjUCE+XUa0hORuK5OR6WFQYjr6k6KVmn8+PjmUcasj75NUDZ9zBN2QQlY/8b3HjmhDsGzV74NasOFyAYXI4cOWJaisUi4GJXhvvjpyHtluPj6XXN+tTrhe1Frxe2F71ewrCXiYkJWLx4semGiy/oWjcA3MXdoYsbu2GWL19u+toV9cUqSoZfs8Kv93j5RS4+HutTtSfKJigZ26f3X8tjf9d/mRC/ZhWPx039vKJ3xiRoZMhdwPI+VDmnMqw/zOMxQXcAwMlzEsoYwga83w2az6+uAcoGKRnbZ3Se0SJOuh/jNzhjMpigmaB1MaDZ7aQTcoAYnAAh40/h7lSG9Yd5h8LnV9cA46e/GArbPpmgOwQIvoOWQ1hnZw7boOXWOg06VDk+P30go3RGyVifrE/ZZzHN9tK6AWCCZoJW/cPYppyEkmFhviMyq5TSGSVjfTKBqdbE9tIiMFk3lF6cysL2Px7F3WEUt5NXAXgUYmsUonAMXFN6cSrDeqnXALFeuQ0izcfT64X1qdcL24teL2wver14ZS9M0B0CPBM0vwctSF2s+YLAnk1QwYoDvL8BXtgsrikcnMoYP3/x4y7uDl2y/Axa7kSqp4XTmyX1HO7iNmuG0hklw5pYn6xPWQNsLwPUxY3AuwG83wms388Psdf9KJugZFgXE4pZo5TOKBnrk+1TtSa2FyboNpugAm6/E1i/nx86u+5HBQFKhnVR9sLHM2ub9Tk4AVdGn8LdqYz9r7/iGXdxdyAUJmg5pNTTVPDgANFfAUJGn8LdqYzthe1FtjFMU7Y0aPbCBM0ErfqHsU05CSUbNAeSlUfpxamM9ckEJtsYpilbYnvpL3thgmaCVv3f2KaCACXjANFfAUI2Dgp3pzK2F7YX2cYwTdnSoNnLPHxeiK+N4IJp3XLy5EltPpYplUqwZMkSk5yqk5Lh8anjWbWTqpOSdTpev59f0Prk45l9zI19sj5Zn2rMjlL8ZPt0Z598B8130OoFrLFNXcVSskG7wpWVR+nFqYz1yXeYso1hmrIltpf+shcmaCZo1f+NbSoIUDIOEP0VIGTjoHB3KmN7YXuRbQzTlC0Nmr0wQTNBq/5hbFNOQskGzYFk5VF6cSpjfTKByTaGacqW2F76y16YoJmgVf83tqkgQMk4QPRXgJCNg8LdqYzthe1FtjFMU7Y0aPbCBM0ErfqHsU05CSUbNAeSlUfpxamM9ckEJtsYpilbYnvpL3vhj2XwxzKaDi8cH9c8eb5+EnzUDY5MlXUl0k51RpXj4+lxoHRGyVifrE/hr2IdZXthgu4QcPlrVva+XMQBkAOgCHxiHeUAKNqIa6qdTmVYL1/Q2YshlK4HTZ/cxc1d3GoPmrEtApdOSMm4i62/uthk/CncncrYXtheZBvDNGVLg2YvTNAWBP3aa6/B1VdfDT/96U9h2bJlUCgU4LLLLjOuhjsZERsYf/zATtBhe2F7YXtpaYD9oeUPTNAWBH3kyBE499xz4fzzz4ezzz4bFixYYKTfffddw5IoI6JkWBhn/tH9qHJOZXw8vkNRbY2yJbYXthe2l3YNhBmvmaAJwtyyZQvMmzfPWBYuXAiPPfZYEzkqyFEyDoAcAJtG1EiwvfAFqx2bYHsZHHthgiYI+vDhw3DBBRcYBH3RRRfBe++91/QjykkoGVYQ5hVZ8wQ6POuhzoGS8fnxBYhsY5hmexkcQpGxp3B3Khu0+MKjuDuMsrzzzjth/vz58MgjjzQDDRoXNdKQkmFZHtXJozpFgOpkS2wvPCpethW2l8GKn5Ej6JdeegmefvppwGfA6lIsFgEXNR+3ncqw7IEDByzrfPzxx2HlypVw6NChtn38Ol4354cD1p577rnmBUOULgiihl83+lTticK2k710c7wo40ddEOzduxeeffbZNj8QuqN0Rsm80Kdog1iHeTwVW0qflN86lVHHY/w6c0fU8ItEF/c777wDTz75JKxYsQI2btwIGzZsgPXr1we2rF27NrBj4Xm5Pd7q1avh2muvhS996Uvwox/9qEnUcveSnPa7S53xs2erUcNPthW1C1HF9rrrrvPcV9z6g91Y4efxVGxVfcq6RjLFRfdzKlOPx/i5801VnzJWTjGiyqnHC52g8Urx1ltvhb/+67+GJ554Qj5/TnfQwL/927/BunXrYHh42NLRVcDlKilD6VbG+MkatZcW+H3rW98KDT9di8UFHWOr0053eQLbb3/726GNOWH8usNKt1cU8MN2hUrQOOgKyfmmm27S6YjzutDAhx9+aPQ4fOMb37DcWwRcdYduSdiqHOOnasb+dpj4WbUW7eX9999n37RSUJf5iC32CP7TP/2TtoRb/9NW2hiEyvhZaaf7fOGbYeAnWhkqQf/whz+Ev/3bvxVt4bVDDXz00Udw+eWXw3/9139pa/CLoBk/rbptZ4aFn1VD0V4YWyvt2MtHbHGCI51v+knQjJ89nKz2Dgs/0Z5QCRq7tb///e+LtvDahQbuuecewO403c8vgmb8dNp2lhcGflYtRXthbK20Yz/fCls/CZrxs4+TVYkw8BNtCW0U9xtvvGF0/4iG8NqdBo4dOwZf/OIXmwPGhPPj2o/Xuhg/d3ippYPGD59PyjYip2dmZtg3VYBcbFthixhY4eBUhjgyfi7A0hQNGj85XodG0NPT03DDDTdo1MFZTjRQKpUMfcqBVqRlwEUerp0GASzH+DlBybpM0PhZEQPaxc9//nP2TWuobEussHXjf4yfbRgcFwgaPzleh9bF/fvf/974CIVjrXHBNg0gqPhRD93Pjy5uxk+naed5QeOHRGz1+81vfmNpS1ZlON9aA1bYiotlXUmnMqyL8dNp1Hle0PjJ8ZoJ2jlukSppZUTYSBlwudFOgwCWY4KWNek+HTR+iKHVjwO8lWac5Vth68b/GD9nWDgpFTR+crxmgnaCWATLWBkRNlUGXG66mwDBBC1r0n06aPw4wLvHrNsarLB143+MX7fad79f0PjJ8ZoJ2j1+kajByoiwcTLgcmPdBAgmaFmT7tNB48cB3j1m3dZgha0b/2P8utW++/2Cxk+O10zQ7vGLRA1WRoSNkwGXG+smQDBBy5p0nw4aPw7w7jHrtgYrbN34H+PXrfbd7xc0fnK8ZoJ2j18karAyImycDLjcWDcBggla1qT7dND4cYB3j1m3NVhh68b/GL9ute9+v6Dxk+P1PNzABuCCad1y8uRJbT6WwSHoS5YsMcmpOkW5pUuXutce12BoAHV66aWXmnBAPCn8sJwOczv4VSYSsOmWTa1lrNQdKpUCZCb038olK5jJQGaG3AOgm33IKmahMJqGNC57ilAl9xXCChTGCuDgjAz/CxI/K9zRFvBrUOybAlP3ayvf7ORjVhhR5VT8+tM3a1Dak4D4cAKyx2tdAuS9b1I4OJWp8ZrvoLuEN+q7oUGE9ZpVZTwFuTlVQzgJA0CtWoWq7EO1KlSbGfV9jJJt+QBwpgbwQU3aF/fC7SrUDqUgNd043hm5PqkN09I+IhvrbPxqZzBRrw/rNOoVQlyfykFqn55qa231tOoEqEBuJKcQtHyONcC9DZ00jilUETR+fAcmg+1v2grbIO6g+9E3q5NJSB1CT6pCYXe+zd+C9E2/8EOSFj8maKGJHl9bBQE8LRlw+TTdGJjcxV0ZT0L29TrJGUSHb/DM5SB+bwpykwXIPJiAQhWgNpOG2KN5mJrMQGK0BLW5HKTGK0Z+fLSR/2jRILHiyCaI7c7D1HgShsZm8Swgvz0JuYNY3+cMgpbri20vtN/lagi6OJKCoqGAIqRGigC1CpQOTsHUwSzE70hBSeLa2i8SsHk4CYkH4pA+1H7/XBpNQP40VlSE1K4po711vWoIunGOKK8HyxpUZvCYU5Ad3gypmfpBg8aPCbqOWBD/Vti68b9u8etH3yyOJCE7mYb4cAryJySnBYAgfdMv/OR4zQQdhIcGcAyrIICHlgGXm+LGwNoJOgHJfXXSQeKZRfKay0HimbJxOHEVX3o0CVMNf8K7a9wHCbo4MgTpyXr5zLa4QebFkURj3waZzuUg+UK9PmiQLzpqnXABSk/EId+68ASxj3y+JoI2hDUoPpqA3Cl5T4Da3CyUG3fZhR2tdht7vZGF5P4q1A6mIH1cLtcNQdf3r02nIDHeOB8Ao4s7yB6QbgO8fHacdqYBK99043/d4lcZ7z/fLI6shZTxiKsC+eEUtD1QC9A3/cJPjtdM0M58LnKlrIIANlQGXG64GwNrJ2hNF7fpzhGgRdBVKB+vNO+gS4/GIT9XvwOffX3WuBM2kWklD8kG4cOhpHEH3aoPoDhSJ/bm+WnvoAWhFyGJd9AAUB5PQGq6/SrcyJ/IQrFx41zcpdQNZcjuzEJ2JN0eHHRd3NKFRfmFZP1RwKkcJBo9BaK9QePXbYAX7eO1cw1YYevG/7rFT1wct7W+x32z9ESseUFd3CV6xcQZBuebfuEnx+v+JeiZTHPQUmxHFqbkuyuBZWNdGssogVbZQbd5ughZMYhoon4nVDuRh/T2OCT2lJrdntVDGUgOxyH1i9bdkq46t3lWQQDrlQGXj9OtgeGgoaeeeqpZFMu1E3Qctu5sDKhCnaA+NEEATuUhMZyB7FgcEvukfRr5ufEUxEdFF7dwvMYdNNSgOBqH1J4spLdtqj+DluqLNco1Gzmdgs3Dok11sq1OJmDr9jSkdsVgExL06xn4m5tjkGrgWHijWRrgRBbijbbGd7fwFHtU98dgk7hgEJlI0MNbIdlmFyXI3B+D5GgS4lvikJubhcz1myA20mhbw3b8xK/ZvEZCxl3FFnfxfSYx9k0DCRkHCiNK1gm/yngf+uZcARLDKciOJSD2RHi+6QV+Kra4Lcfr0D6WUS6XLQc16RptO0++g/qgDNkHpG5KZUBS626tMWjI6NrE0Tz1QT3GseU0ZuBApbaRxCVIb88bd3+1SbwrwzEMBeNZK+4+uzuhGUhl+6wsC4gAL4xGXqNM3hbpbifrv/vuu+G8886DFStWwPj4uPGRDd/xszzTaAgq+1KQlQndZbP8xE/gLdYy7iq2uA++mWHV3e7yNOvF2TcNf5RxENiIdbeyUPDzxAj8qyQo3+wWI4GpWFPlcB85Xg8GQeNVyfhWg1BxYJF5QBLerZUhtw0HIU1BfiQGmdcB4HgaEvvr/ZxF6fkpmlb5mSGI7UhA7MEk5HCgAg6KeqLxNETcPU6nID7R6CeVg5IPtomg4utuR44cMS0HDhww5eF+ePWNi66MLMOPzZ9zzjkwb948WLRokUHU27dv9zeI+6Ajr6qsTmchM1Fu9pJ4Ua+f+Kn4UtiuXLkSvvWtb/mLreILg+qbMg4URpRM9c1A8PPC4H2qwy/fxAtWQbBiTRGtU5mJoFFP4oBWOpNvueV9sJzc1anKUK77UeV0+zvKMwWBIeOuVj8gqd6dWquUoHiwALkdm+sKWVvjAAAgAElEQVR3wPiscVceqrUpSAnybTSmeqL+rBRgFjLDWShLzxqb3bvTKUgeahRQ2uPonIhCGOA/+clPwvr1603L6tWrTXm437p164xFV0aVzZ8/3yBoJGm8m77sssv8DeLEufajyG/8ZIw7YYvvYwd2B21cPA+mb6o4UBhRMtU3fcevHx2QOCf0TZ0/ULzpVIbNkPm2f59BtxFiDaZ21Af6WA5IqhYgubMA5WoNao1BSKis8p4kZJ9RR+tWobinAPWnymXIPYiDhYqQ3NUYU4x33njnfKo18rg6kVBG/BIW4UBkZUQq4HLV3RrRK6+8AgsWLDCWxYsXG8+jrS7M5Po53b0G/MRPbYWMu4rt2NiY/8+g2TcNSGQcKIwoWSj4qQ3q820r3/QCP53qBoag64OEkhC/fyskG4NxxEAl04CkWgnS21KQn8xB+jtDdYJF7Z3OQ+yWbIOMW+qsHkxBfARH8sYhMVkfgTa7JwaJsSykhtONd2qrMLUzBqk9GYjvaH+hvlWTNykrI8LaZcDlo3VrYBs3boQLL7wQMHjjD8tFnqDlgUgjeZgV4wpkBUQo7Sd+6mnKuKvY4r6+DxJrDuAbbN+UcaAwomSh4Kc2yNF2/ZFiwZhPwFEFgRWy8k0v8NOdhByv+/cOWnfmTvIqeUjt8XcEtpNmqWWsjAj3kwGXy7kxsMgTtHyXdiIDQ8ojClkPUUgHjR9ib/XznaCtDmw3v8d9043/9Tx+2Mv4aAriPRxb/cJPjtdM0FRQqBYhO1aAsvk1WapUKLKgA3wvEHRsd33yk8IzSUhr3nUOBSiLgwaNX88H+D7wTb8CfC9cYOEkQ1O1MmS/Y+6dtHCR0LKtfNMv/NoIGg9CjThDOTZQNEZeYzl83QYn1pfzMU3VKcrpHryHhkKPH1gYkYoDblP4IRa6Mj2P33QKBEHjdKFbcWrRCGMcNH5WuKMt+P6aVYRx8KNpVth28jErjKhyPYFfbQqS96ehcHAKcjuHfB2b4wWeQeMnx+v+fc3KC2R6qA4rIxpkgm5+UANH4+9QP2IRLXCDxs8q+PdEgI8WdB1bY4UtRbROZb2AX3V/HJK/aMzdfyoH8Z3yfPYd1Rn4DkHjh8dDHHHhLu7A4fbngMKIdLXLXSayXBiBnCfSnWS90MUtZhJLbNsKycZAPnF+UVsHjR/ia/XrhS5Sq7ZHMd8K204+ZoURVQ7PP9r4VSG/XZ4itwZTO+ONj89EET3refIpHJzKUANyvGaCjqZN2G6VVRBQAZcrdmpEWC7yBC2faA+kg8YPMbT6RTvAW7U6uvlW2LrxP8YvOLyDxo8JOjhsAzuSlRFhA2TA5Qa5CRBM0LIm3aeDxo8DvHvMuq3BCls3/sf4dat99/sFjZ8cr/kO2j1+kajByoiwcTLgcmPdBAgmaFmT7tNB48cB3j1m3dZgha0b/2P8utW++/2Cxk+O10zQ7vGLRA1WRoSNkwGXG+smQDBBy5p0nw4aPw7w7jHrtgYrbN34H+PXrfbd7xc0fnK85lHc7vGLRA3CiITTy2uUydsi7XSkKJYb9K9ZeQ160PghhsIO1DW/ZuUtulbYuvE/xs9bjKjagsZPjtdM0BQyPSSzMiIMvjLgcjB2EyCYoL01jqDx4wDvLX5UbVbYuvE/xo/SuLeyoPGT4zV3cXuLZWi1CSPSNUDuMpHlgqzlPJHuJOMubqEpb9ZB44f4Wv14FLeVZpzlW2HbycesMKLKYQsZP2c4WZUKGj85XjNBW6HSY/lWRoSnIQMunxbl6J1kTNCyJt2ng8bPKvjjmXCAd4+nXIMVtp18zAojqhzjJ2vem3TQ+MnxOjSCxiCwatUqOH26Bz5n4g3Ovtayd+9e+OIXv6g9hgy4vAPl6J1kjJ+sSffpoPGzCv54JvgJwy984Qvsm+5hNWqwwraTj1lhRJVj/DwCTaomaPzkeB0aQaOR3XTTTfDQQw9JquCkUw185StfgQceeEBbXAZc3oFy9G5kjJ+sTXfpMPCzajHaC2NrpR37+VbYduNjuqNR5XB/xk+nNed5YeAnWhsqQb/66qtw/fXXw//8z/+I9vDagQZ+9KMfwY033ghnzug/euwXQTN+DsDSFAkLP01TjCy0F8bWSjv28hFb7NnS+SZFtE5l2DrGzx5G1N5h4SfaFCpBYyOeeOIJ2LBhAxw+fFi0idc2NPAf//EfBjn/5Cc/sSzlF0HjARk/S7V3JQgbP10jhb0wtjrtdJ+H2GJPxAsvvKAt5JSEqXJ4IMZPq27bmWHjhw2eh2DiQ3BcMK1bTp48qc3HMvjO5JIlS0xyqk5V9vDDD8Mll1xiEM0Pf/hDwKuWY8eO8WKhgwMHDsDjjz9uXJmvW7cOnnvuOcf4WeGuYiTbhSpj/OzZatTwk7HFtOzvjK0zbL/0pS8B+ubzzz/fpk9Z16ofeSFj/OzhpfKM8M2o4Bf6HbS4rEFjfeSRR+C2224zDHv9+vWgLmjwuKj5uO1UhmXXrFnjaZ1UW7w43urVq+GOO+6A73//+4b6ur2iFroWa6qcXZnA7/bbb/ccI7/1qdqT38eLIn7CJnCNQV7+vfXWW4Zv3nrrrbBx40ZPfcULfwgaP+p4KrY6fQrd2vWxbsrpjhdV/DDuLlu2zGRPfvtfL+EXGYIWxqczMCELyqD5eNCcZUroQl5TOOB+aoAXZalyTmV8PP37zKxPvV7YXvR6CcNerF7VpNoyaPgxQTOhCP5sW1NOQskGzYFkpVF6cSpjfUaHUBBD3Y/ClvGz1hkTtM6a2m9wmKCZoLVWQgUdSsYByTogcYDXmhr3uGjUQvkYJesl/2OC1gCv8BETtKIQWWWUIziV9ZID4TnqftS58/nZ1xnrs/2Zt7A5Si9OZWyf0bFPJmhh6e1r+RFhaB/LoCZ7xwFHwgHltV+Ty/PxPjDp26muES/WJ+uzW79le9F/VWwQ/A8/uLN06VJbsWfQ7IUJmgnF5CDoBIMQIPAcZSIRaercBy1ACJ3gmtKLUxnr074NUrruJX0yQZsv5FX8uIubu7jb+1caW2gouOh+lAz3l7to5PJUOacyPp59jChdsz5Zn7LPYtove+EublXT9W05fjJBM6ForYRySkqGlckGJldOlXMq4+Mxocg2hmnKltheomMvTNCq5da35fjJBM2EorUSKshRMg6A0QmAiJPux/jxoDTVLiiboGRu/J0JWkWhvs0ErehFVogsogzTqQzr5+PJWq6nWZ96MmV70euF7UWvl16yFyZocxxU8eM7aCZMrZVwAOz9AIgY6n4UtmqAkMtT5ZzK+Hj2MaJ03Uv6ZIKWvauVlm/geBQ3j+JuPrMTjo9raqQoJcOy/JqVeXQmpTNKxvoc3FHOaBeyT4p0v9gLj+I2xwnV35mguyCUI0eOgLoUi0XARc3HbUqGcvxiit1yVJ2UjI9nHyPWJ9un6p+UTVAy9j9r/5uYmIDFixebLkL65QLEiwss7uLu0MWN3TDLly+39cWVTl9jwS/eqF9UwW2qnFMZ1svH8+7LaKxP778mx/Y5mPa5atUqiMfjrb7dRkr0FJgEjQy5C1jehyrnVIb1h3k8JugOADh5TkIZQ9iA97tB8/nVNUDZICVj+xzcZ8JoF7of20t4o/6ZoJmgdT7Z7HbSCdlhw3NYGQ8KB6cyrD/MOwY+v7oGGD/9xcKg2ScTdIeAxHfQcsjsHDwGzYFk7TgNqlQ51qc+UFM6o2SsT9an7LOYjrK9MEEzQav2amxTRkvJsDDfgZlVSumMkrE+mVBUa2J7GZweLB7F3WEUt5NXAXgUIn+NTARRsaZsgpJheX5tzfw6CqUzSsb6tP/qFuszvHjGBN0hADJB2wuOHAA5AIqLErHmAB9egBcY4JrCwakM6+ULSHsxktK1qk/u4u7QJcvPoNUOtmg/s5FbK4KTnCfSTmVYnrvwhRZba9anviue7UWvF7YXvV5Ue2GC7hBwmaBbQVikKOdSDUyUwTVVzqmMj6d3dNanXi9sL3q9sL3o9RK2vTBBM0GjDZp+7LDRdFgZKKcYUeWwfu4hkLVcT1M6o2SsT70fUTqjZIOmTyboDgGJ76DtBatBcyBZO1RgcSpjfXKAl20M05Qtsb30l70wQTNBq/5vbFNBgJJxgOivACEbB4W7UxnbC9uLbGOYpmxp0OyFCZoJWvUPY5tyEko2aA4kK4/Si1MZ65MJTLYxTFO2xPbSX/YyD5834TB5XDCtW06ePKnNxzKlUgmWLFliklN1UjI8PnU8q3ZSdVKyTsfr9/MLWp98PLOPubFP1ifrU43ZUYqfbJ/u7JPvoPkOWr1AN7apq3RKxlfw/XUFLxsHhbtTGdsL24tsY5imbGnQ7IUJmgla9Q9jm3ISSjZoDiQrj9KLUxnrkwlMtjFMU7bE9tJf9sIEzQSt+r+xTQUBSsYBor8ChGwcFO5OZWwvbC+yjWGasqVBsxcmaCZo1T+MbcpJKNmgOZCsPEovTmWsTyYw2cYwTdkS20t/2QsTNBO06v/GNhUEKBkHiP4KELJxULg7lbG9sL3INoZpypYGzV74YxkdJnvnj2XYmwgenQtHbgonk9fUJPFOZXw8/jiHbGOYpmyJ7YXtpZfshQm6A6EwQTNBqw7NFyD2bIIJky9YVR+ibIKSDdoFFndxcxe32sNkbAuH0gkp2aB1Qcn6ofTiVMb65C5g2cYwTdkS20t/2QsTtAVBv/baa3D11VdDoVCAZcuWGevLLrvM6L7t5CTsQBU1phjblF6cyjgg9VdAkg3HqU1Q5dhe2F5kG8N0lO2FCdqCoI8cOQLnnnsunH/++XD22WfDggULjPS7775r4EuBSsmwMM78o/tR5ZzK+HgckFRbo2yJ7YXthe2lXQNhxmsmaIIwt2zZAvPmzTOWhQsXwmOPPdZEjgpylIwDIAfAphE1EmwvfMFqxybYXgbHXpigCYI+fPgwXHDBBQZBX3TRRfDee+81/YhyEkqGFYR5RdY8gQ5dO9Q5UDI+P74AkW0M02wvg0MoMvYU7k5lgxZfeBR3h1Hcd955J8yfPx8eeeSRZqBB46JGGlIyLMujgHkUsAhQnWyJ7YVfC5Jthe1lsOJn5Aj61KlTcODAAZienjYtr776KuDipQzrmpyctKxzdHQUVq5cCf/93//dto/TtnQ6Xjfnd/ToUXj77bebFwxRuiCIGn7d6FO1JwrbfsePuiBAbIvFIuD4DHXBfCcyrAf9Xa0Pt53WSZXz+3jHjh2D06dPN32T0iflt05l1PEYv862GzX8ItPFvXv3bli1ahUsXbr0/7f3vTFuVOf6gbYhBVIQlxAIVJQPXBH4NSFZgtoPhYIuUP4kV6xUiayEbmHFvV1Z/ImsfFhZ+cDKTdFeC9BeKx/oKvzR9ZYEHDWpvNEF7bYVrTewqQMCNh+IHJWVui1Ra6F8cFtU3p/eGR/7+MzMa894ZmyvH0uzc2beOefMvM/zvs/M8Zk1bd++nXbs2OFYbrvtNuIlTBu3NTQ0FGqb0nmG0R/757LLLqPvf//7dOTIkXoy0IeX9HIcQ+rAb4fFzXb42Yv4SXxhbLdu3UobNmywYpPjJcxl27ZtobbX6tyi7I/9xBNK77rrLis2e2FIFvi1z9dew6/rAs13irt27aIf/OAH9Ktf/UrPEyi38MDhw4dpy5Yt9NRTT1ki7XV4lAIN/Ly83np/L+DndpaKL/w0xrF533330fz8vNuh2OfhgUOHDtEtt9xCTz/9dNfmnAA/D3Da2N0L+PFpdl2gH374YUtg2vAZDnHxwD//+U+6//77aXx83MVq71IJ1zyAA5gXt0+7NuDn5r3293UbP7czVXwZHh5GbLo5qM19/EomxyaLtNun3Rgz60r1+FjgZ3os2Ha38eOz7qpAv/rqq9YwbTD3oZbywF//+le66qqrqFQqqV1NaxWwTTtbzK6VkoCyAT/To8G2u4Wf19kyXxjbO++80+sQ7G/TA5999hldccUVdOrUKUcNFUcOQwexyW0BPzePBtvXLfzU2XZVoL/3ve/R0aNH1blg3YEHnn32Wc879agEGvh1AJhRtRv4GadQ32S+3HHHHYjNukc6KzC2zzzzjKORKAUa+DncHXhHN/BTJ9u1WdyVSsV6fUmdCNadeWBxcdGayKOCXl9H8VoX8OsML7N23Pjx3AGdI3r5D3/4A11wwQWeX3+Y545t2QM8c5wnpuk+5nLQmdpSPW4X+Ml4+LXGjZ+er7sm0J988gl985vf9OsrHO/hgT//+c+0ceNGRxLggNUB15OEFOitbMDPA4iAu+PGj/HVuaCX+asSfpsCn3A8wPHH/89f9zGXW8WYF0ZSPW4X+IWDm2olbvz0fN21IW5+Jw8CrSjQ+VoleLeWohjiBn5ung6+L278OJF7fd5//31LULzs2O/PAyrBm7WUYJv7eTuojesCPzePBt8XN356voZAB8etp2rGneAh0OHCHzd+EOhw8ZNaizvBQ6AlNPzb4sYPAu0fo56vEXeCh0CHS4m48YNAh4uf1FrcCR4CLaHh3xY3fhBo/xj1fI24EzwEOlxKxI0fBDpc/KTW4k7wEGgJDf+2uPGDQPvHqOdrxJ3gIdDhUiJu/CDQ4eIntRZ3godAS2j4t8WNHwTaP0Y9XyPuBA+BDpcSceMHgQ4XP6m1uBM8BFpCw78tbvyaBJo3+AR44bLbcubMGdf9XIen9PPrPWY9qU228Xuf1113nX9voYarBzjB848ZmDjwtoSfF+7Az9XNke2MGz8v3Jkv/GtQeM0qPKjZ11dffbUjNlvFmBdGUj3gFx5uqqW48dPzNWZxKxT6fB33ExieoMMlTNz44Qk6XPyk1jjB83vQ5ocx8MIhqI37wBO06enOtuPGj2+y1AcCrTzR5+u4EzwEOlzCxI2flzDwVSHBh4tt3Ake+PU3fhDocPHridbiTvAQ6HBhjxs/CHS4+EmtQaAl7/S+LW78INC9zwnfZxh3godA+4ZIrBA3fhBoEY5QjXEneDxBhwqfNT8rzq8oBkOgF7N09z13W8vo3mmaawzrO9ArTWXJ/YcaHYc2dpwr0vRkhjK8HCtb+6un85TZk6DkwRJVa0dW3slSaixB6bfsYxoNhFuKMsHzpKEXX3yxfsKc3L0EujwzSqnZSv3YKAorx7JUEPBs3WeZ5iYSNPJkmubOtj7aPqJE2SnfLDEaL1PuiRQVzhm7iShK/MzeGD8l0Ca2fGzkCX7AYjNKgfaDX1/EpkteNfnr3O4wNnU+TuRp6XxzD1Hi19yTvdUk0Byorf75Op+gCmp9zfXK5bI141Pf36pNrhf5jy0spCm9ULv8L8o0/WiK5pRqVitUqagNouJEmorWoVXiX2mqKICq1brQkl7mY99JU3qx1r61KlFmT55YmqqzSbvvSoGSk3ZSXzqQpNyyfny4ZU7w/JvQJg68LeHHWLjV0Tmxa9cuuuiii+imm26imZkZiy/u+JUoszdN6SenqX47cr5KVcPfRIaf2RXna34/38ClylhoOCmPrcykHb6sKsy+qFKV/800t2fV1/CsNbA0laCcJcwlmn6pcTPF5no7RpmoSOkJmyXqPEg/V6v/2nXV+m1cSa3GqQwl96cpcbDunXpTUeJn4ithy8fymxluTwz1k+20MGCxqRK8hENQmxmb3vj1R2w682qDbJHFps7H01kafr75RjxK/EzceVvP16v316x0p/OPmM+MWIJaXcxQYjJPc7NZSu4vWgJsC7T9dJObn6P8xChlPyQiTqhH7KfB4n5N4Imo/NIwje5N0uhjKcqdrhIt5yihgF3OUXpmhWghTYljtadJ43watAunxAn+yiuvJP5pNHM5fvy4Yx8fw3ffvJjHm7a3336bvvrVr9KaNWvosssus4Saf9/W8WMnC2lKvVWl8sEETX9iX1dxYjONPJ+nuSNpGrX84/QzY5KcKtDcTIaGv2PfLK0cTlLyIO9L0Yjx5OoUaE08a36unJ6jufk5KuwfppHD+uP2CuX2ZSn/WpISY1kqNj3NVii/J2OPpiznKNUkpFofNcgaN3Y1W3WFSvPc7zQl7k9TyVDo4gRzqEzT+g1Mra0o8TPx1XE3sd28eTP9+Mc/jk+gByA2OeHyq6gSDkFtbePXF7Hpklfr6THC2FxI0+iBWr54KUWZhebA7apA8/UrFa/7wijoj9y6iet9+umnrsEstck2ryFSvf2OyoYgrswMW0+1xYlhyszaYGSfSFCh0niCrq6UqDhfoNzeB2pP32Wa3penSnWO0kp8aydVOb1kPS0TLVF2bJrKnNBfqz0ZaQKdeqdWwTifjq7NpTIn+G984xs0NDTkWLZs2eLYx8dt377dWtzqmLa1a9daAs0izU/T1157rSHQVZobH7F9O5Oi4drIAYuS/dy5QrkxW/xMPzeOqVBhjAWaRTRXewqvUOHJdNNXEO0ItOWis7n6TVjDZSuU++Eo5VmzvyhR+sk86fJdfStNmVNE5YNpyjeJdxsCbXVSpeL+ZO0JvdErVecotTtDhfk5yo0PW31oVmuIO0r8dIxbYcvv7Mb2BG0J9OqOTU7wl19+uSMGTRwkjCSbGZtO/PolNokceVULkshiUxNo64FgsnlUTQm0dipWsZXGsd3tI9Xj43W9Xb2vWTUJYpXm9tpiXNqfoPyyPfy59KEtstaTUKVAqfEClStVqr6Tqg+Plw+maPolO2k3nF2h4sFCTUDKlHuMhadIqX21IVB+8uYn57MN0a4cSzqScqO9zkss0HyX7vbRAdftElF0269//Wu6+OKLrYWf0vn7aMcN1rk8JfbN1YaVy5Qbs0ccihPJ2lcLZcrxk6OLn0v10QkWT1ug8+NqmLwh7OrcXQVa+V5hd75I6T1K5FVNXvNNgLppKFs3ArpAW0K6f5qyfGOmV3MZ4m7cWBQpVRv+Ls/w1xvNd+BWr0cSlHqrNux+NkeJ8bnG1ydd/A7axHZqair676AHLDajTPBt4ddHsenMq1oQ8k1uBLHJI531r0OpTNN7c0037VHip11dvajn61Ut0A+M8SSuFCV2j1CqNpGLzuYpOZal3EyaEpPaEHe1RJkn0pSfzVHmyWFbYNll5/I0eo8Si7oPqTKfpsTENE1PJCg5a6f4pYOjlJyapjQ/KVo5ukJz46OUPpilxN7mJ7VGS+GUohToHTt20KWXXkqcvPnD4m0KdOVI8w1IdT5FiSMVKk58l0bGszQ9WfOTm58ZkydSlBlP0APfsZ+WqwuZmn9HKXG4+TvblZkEjYzXJuhN8o1ShQp7Rig5mabUY3dTeoGfurfR8N7aMQeLTWJbPZW1hrenJ0cpcaRJnq3rK01uo+RbpsgWKX1/wp4UOJmh6YUKVWaTNLInQ+l9o3Q3C/SHWfruXaOUrk0eLNSG+fmmoD50bvXATzSJpif0KPGzutT+6DdfJrZ8WOSTxBbSNEixGWWCbwe/fopNt7yqUZfCj02yvoq0+Zih5BMjlKrlc9VvlPipPvT1YAi0fsWdlFfylG76LrKTxqKrG3eCNwXa68oa39N6HUG0Mp+rfRe8RNnxaG9kvM+iYSlNphsTChu7Iy3FjR+LtNcncoH26tjv/j6JzbgTfLv4ITbbI1zc+EGg28OFqFKk6akClc2HqXbrx3hc3Am+XYEuH1NfBQjOOL9E+QNZyj4/bUzaEupEZCofs5+OI2res9m48et7ge6j2Iw7wbcr0IhNz3BsMsSNX5NAc6Dqr12o4S99zSeob6sy1+vZ16yaXLz6NzjBR/WalcJbrRl399esVr+fo7rCuPFjDBWe5jry16yicmKPtqsSvOlnKe8GtXEfwC9cIsSNn663q/c1q3Ax6vnW4k7wEOhwKRE3fhDocPGTWos7wUOgJTT82+LGr0mg+XTVnZ3XqeuP3PoxXK9nX7PST3QAypzgo5rFbbqPcW93iNusi213D8SNH2Po9Wl3iNSrPvY3e0Al+Oa9ct6VcrJk4z6An+npzrbjxk/X29U7i7szTPqudtwJHgIdLkXixg8CHS5+UmtxJ3gItISGf1vc+EGg/WPU8zXiTvAQ6HApETd+EOhw8ZNaizvBQ6AlNPzb4sYPAu0fo56vEXeCh0CHS4m48YNAh4uf1FrcCR4CLaHh3xY3fhBo/xj1fI24EzwEOlxKxI0fBDpc/KTW4k7wEGgJDf+2uPFrEmgOVGlKP9v5BHltLlwPr1n5BzyKGpzg8ZpVFJ6Np8248cMs7nhw5V5UgnfLn144SDlZsnEfmMUdLrZx46frLV6zChfLrrUWd4LHa1bhQh03fl7CgAQfLq7cWtwJHgIdLoZx49ck0Hwp6s7O67L0R279GK6H16x0j3SvzAker1l1z/+d9hw3fhy7Xh8MkXp5Jth+leDN2lLeDWrjPoCf6enOtuPGT9fbrr1mtby8TPyzaPiE4wH253XXXefamA64fkDQJMD1gJ/uyc7LcePHGHp9PvroI9qwYYOXGft9eoDna1x//fWOWp3EH/BzuDOyHXHjp+frrgk0E4x/I/WPf/xjZI4dpIaPHTtG99xzj+sl64DrB3SaIICf7s3Oyt3Az+uMmS/8s6J804BP5x44evQo3XvvvY6GOo0/R4O1HcDPyzPB9ncDP3WmXRXoxx9/nJ577jl1Llh34IHdu3fXfw7SbCYqgQZ+pqeDb3cDP6+zZb4AWy/v+N//yCOPuMZmlAIN/Pzj5FWjG/ipc+mqQJ86dYrWr19Pp0+fVueDdQAP5PN5+ta3vkX/+Mc/XGtHJdDAz9Xdvnd2Cz+vE2W+fPDBB7Ru3Tr6+OOPvQ7D/jY8wNjecMMN9OWXXzqOjlKggZ/D3YF2dAs/dbJdFWg+if/5n/+hm266iU6cOKHOCWsfHjh06BBddNFFNDs761krKoHmDoGfp9vbMnQbP7eTVHxhbG+88UZaWFhwOwz7Wnjg9ddfpwsvvJAYY7dPlALN/QE/N6+3v6/b+PGZruFg5FlqvHDZbTlz5mguxb8AACAASURBVIzrfq7DU/p59rBZT2rTtL3wwgt0ySWX0H/8x3/Qm2++Sb///e+tdrltLE4fvPfee/TKK6/QQw89RP/6r/9qJYCg+HnVMzHS8TVtwM+JkcTbXsNPx5bLerwztpdddpkVm2+88QYtLi7SyZMnsXj4gB80Xn75ZXrwwQetBw/OZ7o/dV+bcRSGDfh1xs1ew6/rT9DqfuYvf/kLcTLYtWsXbd26lbZt2+ZYbr31VuIlTBu3tWXLllDblM4zjP5uu+024u9FWKT5I92Js52D1u0j1fNrA37bLG62w89exE/nh8mXzz//vB6bQ0ND5LZs376dePFr4+M53v3W69X+br/9duL5BCo244q/fsSPcd+0aZMDewnbqPnSa/j1jEBLBFM2v6LRTj0+xkxI7dQLei7oz/31HvjT3S/gi7tfwBd3v/QTX4L8D41+uj7mqNtH4q55fRBoCLQbh8Sncj8E0xuX6gW1mYRGf7YH4E/35Ai+uPulG3yBQOvZqlHWHxgh0BDoBjO0UjcClvt0+0jnwsfrhNbrS/WC2tCff4wkX8Ofg+tPCLSerRplPZ9BoJHgG8zQSlJSlWzchE4wrcnAT+XoL/o5BDpOwE/3hl2WOCjZuDb86e5PCLTTLyZfuvZjGdI/6+fZjYr0+lr6FZegNm4f/bn/UpkXRpKv4c9qqNyFP+FPPQdyebXEX5BfQhy0eIBAQ6AhKMZPqa6WBIgbLOeN56AleF3cJV4HtXXiTwh0a35iiBtDUK7jLCqw3YySzRyi0etL9YLa0N/gfofJnHH7SFwCX/z7LCp/Yojbjb3NX4lAoCHQriyRglKyIQH2TgJknNw+wA/f6Zu8kDgh2TqJdwi0iYK9rc9ZgEBDoF1ZIgWlZOskYLldtw/6g6CYvJA4IdnAT/8xFpU/IdAmq+1tCLThF90hukkiZlAbt4/+dC/bZfjTPXGCL+5+AV/c/dJPfIFAO/OgiR+eoCGYrixBAuz/BMgYun0kbM0EodeX6gW1oT//GEm+7id/QqD16GqU9Qc4zOLGLG7M4sYs7iYO4LVD5+zabsxyXu2z8DGL28kzvvnS4w8CbThE3Z3yOmhQSvVMANCfTVLJZ5IN/sR7wnoMcRl86Y//IwGBbkOg+cFaEbzxkN1c0h+5dQvXCzJM0Ul/XNftI7Up2bgt6frQn9Pb8CcmbZmskDgh2RB/g5vPgmjHoPEF30FDoM1ca21LSVWyDVoA6c6T/BLUBn8OroAxZ9w+Epf6iS8QaDd0mx8YIdAQaFeWSElAsvVTgljtCRDX50ptjJi5uEWKacnWSbxDoF2AMPQIAm04RHeZRMygtk4IzX26faRzQX/+fQZ/YgjfjDOJE5IN8ecdfxBok2X2tv6VKwQaAu3KEinpSDYkJO+ExH5z+8CfuCEweSFxQrL1U/xBoE3U7e0mgWawO5n1GGQmXif9cV1FUH0ttSnZuA19WnsYbaK//phFGoRL4AviT88RXEa8B4v3INoxaPGH16zaEOh3332XzKVYLBIv5n7elmxsP378uO96UpuSDf35xwj+BD/NuJY4IdkQf97xd+zYMbryyisdD1y44Wnc8GCIu8UQNw/DXH/99TQ0NNS0bN++nXgx9/O2ZGP7li1bfNeT2pRs6M8/RvAn+GnGtcQJyYb4846/b3/725RIJBzjvGqEwmGo7dCHgPVjpHpBbdx+N/uDQLcAIMj3JBIZug34aic0rs/2gMRByQZ++p8nAH9iDoGed7gscUKymfEHgYZAm9yytiUSSTaTYHrjUr2gNvQHQdE5xmWJS+AL+NJPfIFAQ6BNvlrbUpKTbEiASIAmocAXPGH64QT40uALBBoCbcaOtS0FiWTjyt38zka/GOk8g9pwfbgB0TnGZYlL4Av40glfINAtBAXfQZv0QkLCDYg/TkDAGk9EuuckvwS1cfvgp+5lu9yv/lzDYPJ7wLxw2W05c+aM636uUyqVaOPGjQ671KZk4/6l/rzOU2pTsrXqb7VfX9z+RH/OGOuEn/An/Gnm7F7Kn+BnZ/zEE3SLO048Qfu7G8UdPIb0TMZITy/gC/gCvjR7gG+41AcCDYFWXGhaS0lVsnEjOsH0RqV6QW3oDwle5xiXJS6BL+BLP/EFAt1CUPAEbdIZCRA3IP44AcFsPBHpnpP8EtTG7YOfupftcr/6EwLdgtAQaH9kR4LAE4rJGCk5gi/gC/jS7AH9BgsCDYFuZkdtS0qqko2r6wTTG5fqBbWhPyR4nWNclrgEvoAv/cQX/FhGix/LCPKLK/hn741/9q6SJa8lvwS1cbs8U1TvR5WDtinVQ3/4NSvFL7UGXxB/igtqLXFCsnF9PZ9BoA2HKAfzmh0Jgf7CIX5+CGb6k+vq+1RZalOycX2d0Ko9Xkv1gtrQH/DTOdaKZ+AL+NIJXzDE3WJIFt9BmwNCGELEEL4/TqgE5axl74E/nZ6RfCbZuCX4c/X4EwLdgtAQaH9kR4LAd3wmYyAomMXthxPgS4MvEGgItBk71rYUJJKNK+MO3ulSyWeSDf7EDY/JJvClIWC6byS/BLV1O/4g0C0EBU/QegjYZYns3Sa0frbSeQa14fogmDrHuCxxCXwBXzrhCwQaAm3yx9qWko5kQ0JCQjIJBb4MzhOfjr2Ee1DboOUXzOJuMQsYs7gxi1slE7XGrHF/nJBmzLNP4U/4U8UWr8GXxmtrEOgWCQIC7S95IOHitRI92SLh4gbE5EMrTkCgNYHmIQPlQH14Qi9Lk35W+3e0q/36GHu3j8QJycZtSXxBf05vw58YAjZZIXFCsiH+Vlc+w3fQHoLyu9/9jm6++WYqFAq0adMma33ttddaw3EcBFKQSDYE0OoKID2xSrgHtYEv4IvOMS5LXAJfVhdfINAeAv3uu+/S1772NVq3bh195StfoYsvvtgq/+1vf7PiRQoSyYYAWl0BZJGh9kfCPagNfAFfdI5xWeIS+LK6+AKB9hBoJvrOnTtpzZo11nLJJZfQT3/603qsSEEi2RBAqyuA6oRokTglTkg28AV80TnGZfBlcL4SgUALAn3ixAn6+te/bgn0+vXr6e9//3s9VqQgkWxIuEi4dRLVCuDL4CRcHXsJ96A25JfVlV8wi7vFLO4HH3yQ1q5dSz/5yU/qd64cPNJMQ8nGdfFaib+Z4fBnY1anStydcBD+hD91HnXCJa6LfBZdPus5gT579iwdP36cFhYWHMtvf/tb4iVMG7c1Ozvr2ebk5CRt3ryZfvOb3zQdE/RcWvXXzvW999579Kc//al+w9BLCbfX8GvHnyafJGxXO35SwmVsi8Ui8fwMc+H9QWzcDse72R5vB21Tqhd1fydPnqRz587VY1PypxS3QW1Sf8CvNXd7Db+eGeI+cOAAffvb36ZrrrmGtm/fTjt27HAst912G/ESpo3bGhoaCrVN6TzD6I/9c9lll9H3v/99OnLkSD0Z6MNnejmO156A3w6Lm+3wsxfxk/jC2G7dupU2bNhgxSbHS5jLtm3bQm2v1blF2R/7iSeU3nXXXVZs9sKQM/Brn6+9hl/XBZrvFHft2kU/+MEP6Fe/+pWeJ1Bu4YHDhw/Tli1b6KmnnrJE2uvwKAUa+Hl5vfX+XsDP7SwVX/hpjGPzvvvuo/n5ebdDsc/DA4cOHaJbbrmFnn766a79XwDg5wFOG7t7AT8+za4L9MMPP2wJTBs+wyEuHvjnP/9J999/P42Pj7tY7V0q4ZoHcADz4vZp1wb83LzX/r5u4+d2poovw8PDiE03B7W5j1/J5NhkkXb7tBtjZl2pHh8L/EyPBdvuNn581l0V6FdffdUapg3mPtRSHvjrX/9KV111FZVKJbWraa0Ctmlni9c1pCSgbMDP9Giw7W7h53W2zBfG9s477/Q6BPvb9MBnn31GV1xxBZ06dcpRQ8WRw9BBbHJbwM/No8H2dQs/dbZdFejvfe97dPToUXUuWHfggWeffdbzTj0qgQZ+HQBmVO0GfsYp1DeZL3fccQdis+6RzgqM7TPPPONoJEqBBn4Odwfe0Q381Ml2TaDPnz9vvb6kTgTrzjywuLhIt956q2sjUQg08HN1deCdcePH4uD1WV5epgsuuMDz6w+vetjv7gGeOc4TA81PVAIN/ExPd7YdN356vl7DG/weGy9cdlvOnDnjup/r8LDqxo0bHXapTbZxQrruuus68xxq1z3w5z//2Rrm9oufF+7Ar+7aWApx4+eFO/OHX1PitynwCccD7Gv2pxmbrWLMCyOpHvALBzO9lbjx0/W2a0/Q/E7eN7/5Td0PKHfgAU7wfKPk9uGgdft0cgcP/Nw8Gnxf3PhJT9Dvv/++9QMxwa8GNXUPcILnH9wxP53EH/AzvRnddtz46fkaAh0drrG2HHeCh0CHC2/c+CHBh4uf1FrcCR43WBIa/m1x4weB9o9Rz9eIO8FDoMOlRNz4QaDDxU9qLe4ED4GW0PBvixs/CLR/jHq+RtwJHgIdLiXixg8CHS5+UmtxJ3gItISGf1vc+EGg/WPU8zXiTvAQ6HApETd+EOhw8ZNaizvBQ6AlNPzb4savSaA5UKV/zM52PkFemwvXK5fL1gxFNxvbzf28zfs/+eQTTBLzzxXPGpzg+Z+VuPlbwk/CSLIBP08oAhnixs8LW+YPv5nhNqkp0IWhkpU/2Z9mbDIGXjgEtQG/8AmnBDou/PR83bVfs0KCD5dIcSd44Nff+HkJAxJ8uLhya3EneNxghYth3Pg1CTRfiroz8Los/ZFbP4brffrpp65321KbbMMQqe7JzstxD5ECv84x01uIGz+OQa8Phki9PBNsv0rwZu1WOdILI6ke9wH8TE93th03frre4jWrzrDrmdpxJ3gIdLjQx42fV/Lnq0KCDxfbuBM88Otv/CDQ4eLXE63FneAh0OHCHjd+EOhw8ZNag0BL3ul9W9z4QaB7nxO+zzDuBA+B9g2RWCFu/CDQIhyhGuNO8HiCDhW++hwCs1Xpq4agNu5jMAR6MUt333O3tYzunaY59/92afm8NJUl9x9qNCHRts8VaXoyQxlejpUtQ/V0njJ7EpQ8WKJq7dDKO1lKjSUo/ZZ9jNZCqMUoEzz/b+YXX3yxfr5MPneBLlPuiRQVztUPjaCwQoWpAglwttdntUSZcR/tLGYpu9he015HlWfTlHh0lEYfS1HutGKIfXSU+JnnoycPE1s+NvIEP2CxGaVAt49ff8RmZXGaUk8mKXNkqZ5DTf46tjuMzZVjyZpWDFNiMk9LleYeosSvuSd7q0mgOVilKf1s5xNUQa2vuV7Pvma1kKb0Qu3yvyjT9KMpmlM5sVqhSkVtEBUn0lS0Dq1SpVKhyvlaPX4NolYkvcz73klTuilhlyizJ0+MbXU2afddKVBy0pb+pQNJyi2rxsJfc4KP6jWrXbt20UUXXUQ33XQTzczMeL8mdypDyf1pShxs3IxUz1epqvuUL/2Lmp/rziX7mCoRH29/nMfY+1coN5EzBJpfV1HVbMysPrlfXpStdghRlYpTSRrZa7TzRZWqau6UXuZ6Op9UV4on6lh1XVa/zZ1W51M0OqP8UqbcY2kqqr6IKEr89Jjlsh7vJrZsj3wWsO7LAYhNleAlHILa2savH2LziyJl9s9ZObf82ihl9J/QVjHGsaeXQ4jNlZl0IzdX5ij16DSpSOXmo8TPxJ23db1dva9Z6UmAhw1mRixBrS5mrLukudksJfcXLTLYAm3fYebm5yg/MUrZD4mISX3Evp0q7tcEnojKLw3T6N5k42loOUeJ52vP4cs5Ss+sWEk9cax2O2acTy3Hh7biBH/llVcS/zSauRw/ftyxj4/hu29ezONN29tvv01f/epXac2aNXTZZZdZQs2/b2v+2Elxgn1UpuknFcGLlP5/I5Q5YvvUCrhqkdJPZKkwX6DpJ1NUqBCtHE5SamaOClNJunuMRXOF8nuSND07R7l9I5TVA5VcBFr528KZg61KK4tzNDc/R9NjD1B60RDLhSxlF5acQn8uX7+hWplJ0fQnGjwO/IqUnrBv6+rifW7J6nPuWJqGH8033UQU9yUbN4has6oYJX4mvjruJrabN2+mH//4x65vZqhz7Xht+HK1xyYnXP4hGwmHoLZ28euX2GRuVU4XKLs3Q0V1A8w7I4zNJoEmfmAbobw2RNdVgeZrVyruFXj6I7d+DNfr2desHElg2HqqLU4MU2bWTt7ZJxKWQKgn6OpKiYrzBcrtfaD29F2m6X15qlTnKK3Et+aAyukl62mZaImyY9NUXs5R6rXafZcSjIU0pd6pVTDOR/djGGVO8N/4xjdoaGjIsWzZssWxj4/j36jlxa2OaVu7dq0l0CzS/DR97bXXNgt0dY5SuzNUmJ+j3Phw7e63SOl9NRHTbmAqn5Robj5PmUcTlFteody+XO2OtUQZFmjdl5UCJfbrX0C0I9C2R6sLaUrWn1prXj5fpMwUfwXh0g5VaW4iQyUq0/SEPRpSx8aBn4tAWweXKbcn3ZxcuN29qdooTb3FpkLU+OkYt8L26quvjlmgV3dscoK//PLLHXFm4iBhJNnM2HTg1y+xWYuIamWFSi8lKdN0Yx1VbPLDm/YEbQn0cOOJWnuCbgrYFropaapk4z50vV29r1k1JVROkLYYl/YnKL9sD30ufWiLrCXQlQKlxgtUrlSp+k6qPjxePpii6ZfSzcMtVKHiwUJNVHi4kpN6kVJKjPjJm5+czzZEu3IsabRhwt3ZNif4qH5u8te//jVdfPHF1sJP6fx9tPkddOVIglJv1YaUz+YoMc5DVUVK77WHrNgXiZfKRB9mKXGgRCuVKpVfS1kCnR/XnrgfzdHKSp5SfCx/NGG3d7gIqybodptk+V6NkNj1an8/KdjzBiZTNHL/CGUXmr9w4qHo9EtZStVGTup1m/jEe7WbjzpfqlTcn6Tc2XqtemFlJtGEf2lytCkJRIlf/SRqBT1BmNhOTU1F/x10ky9Xf2yqJzAJh6C2dvDrm9g8X6L8fO3RlfPF1FKTW6KLTV2g+etQzueNT5T4NXpplAZGoB8Y40lcKUrsHqFUbSIXnc1TcixLuZk0JSa1IW6eNPREmvKzOco8OWwLLPvsXJ5G71EC0nBiZT5NiYlpmp5IUHLWJtXSwVFKTk1TeixDJWtUtUJz46OUPpilxN7mIc9GS+GUokzwO3bsoEsvvZQ4efOHE3yzQFcov0cndZXmxhOUP1ek9HdGKHVgmjJjSSrwd/DLeUrumabCkSylHhuxRKu6kKHRJ1OUHh+h71pDw1UqTiYofXCa0o8lKN8keCuUGxuhVNMEvRJld49SirHeyU/lS5T9zt00OtE8ia/Z0y5Cbx1QosytLsPRC2my+cRtTlOxUqHCnhFKTqYp9djd1g1dZTZB236YrN0A8DF6j2XKjw1TYl+GMntHKXFY/5bL/g46qhss/Sy4rAu0iS3bI58kVvflYMRmlAm+NX79FJuNuE89UcsXTeSNJjb55nlknOM6SaM7Ryl7qvkrsSjxa7q82sZgCLTblQfZt5KntDbpKUgTcdSJUqDN83cKtHmE2taGgdUux7pKS4cLZN0rny9Qsmk423Fw9Du+KNUnqkTfWaOHuPFjDL0+kQu0V8d+9/dJbMad4NvDr4dj04uaXYrNuPGDQLebCCpFmp4qULn5hqrd2rEeF3eCb36C9rrUMhXUyIXXIbyfX1mbylJ2Kk9L+sQQqU4ktjIV+Ok40tfE3E88bvz6XqD7KDbjTvDtCTRi0z0SnXvjxq9JoDlQ9dcueNtc+ATNfapez75m5fTzqt7DCT6q16xM7Jkv+LGMcOkUN36MoYmr2o78NatwXdfzrakEr/yr1lLeDWrjtoFfuJSIGz9db1fva1bhYtTzrcWd4CHQ4VIibvwg0OHiJ7UWd4KHQEto+LfFjV+TQPPpqjs6r1PXH7n1Y7hez75mpZ/oAJQ5wcc5yai9Ie4BcHxIlxg3fhy7Xp/2hki9amO/6QGV4M39Ut4NauM+gJ/p6c6248ZP19vV+5pVZ5j0Xe24EzwEOlyKxI0fBDpc/KTW4k7wEGgJDf+2uPGDQPvHqOdrxJ3gIdDhUiJu/CDQ4eIntRZ3godAS2j4t8WNHwTaP0Y9XyPuBA+BDpcSceMHgQ4XP6m1uBM8BFpCw78tbvwg0P4x6vkacSd4CHS4lIgbPwh0uPhJrcWd4CHQEhr+bXHjB4H2j1HP14g7wUOgw6VE3PhBoMPFT2ot7gQPgZbQ8G+LG78mgeYNPgFeuOy2nDlzxnU/1+Ep/Tx72Kwntcm2xcVFuu666/x7CzVcPcAJfsOGDQ4cGBcJPy/cgZ+rmyPbGTd+XrgzX/jXrq655prIrnXQGmZf8w9Y+M2RXhhJsQn8wmdX3Pjp+RqzuMPHsystxv0EhifocGGOGz88QYeLn9QaJ/hNmzY5DmEMvHAIauNO8ATtcHVHO+LGj2+y1KdrAr28vGzdVaoTwbozD7A/vUYkdMD1XoImAa4H/HRPdl6OGz8vYeAr+eijj6zRmM6vCi2wB/hm9vrrr3c4o5P4A34Od0a2I2789HzdNYFmgvFvpP7xj3+MzLGD1PCxY8fonnvucb1kHXD9gE4TBPDTvdlZuRv4eZ0x84V/VpRvGvDp3ANHjx6le++919FQp/HnaLC2A/h5eSbY/m7gp860qwL9+OOP03PPPafOBesOPLB79+76z0GazUQl0MDP9HTw7W7g53W2zBdg6+Ud//sfeeQR19iMUqCBn3+cvGp0Az91Ll0V6FOnTtH69evp9OnT6nywDuCBfD5P3/rWt+gf//iHa+2oBBr4ubrb985u4ed1osyXDz74gNatW0cff/yx12HY34YHGNsbbriBvvzyS8fRUQo08HO4O9CObuGnTrZrP5ah/ln/iy++SDfddBOdOHFCnRPWPjxw6NAhWrt2Lf3yl7+s/091FfhqzZMcVFlfB/3FHL0e8PMBlsuh3cZP54MqK74wtjfeeCMtLCy4nDl2tfLA66+/ThdeeCH9/Oc/jyz+FGb6Gvi1QqY9e7fxY0y7LtB8Ej/72c/o0ksvpR/96Ef05ptv0u9//3vr9S1+hQuL0wfvvfcevfLKK7Rz507r5ub48ePWT4bqQaqXVcDq+7isC20nNuDnxEjiba/hZ2Kv84Wx5bkGHJtvvPGG9XrkyZMnCYu7D/hB4+WXX6aHHnqIbr75Znr77betV1hNH4cZf2bbwM8dm3Y422v4dXWIW7+P+ctf/kIvvPAC7dq1i7Zu3Urbtm1zLLfeeivxEqaN29qyZUuobUrnGUZ/t912G/H3IizS/FEBqvtTL0c1xK33Afy2Wdxsh5+9iJ+OpcmXzz//vB6bQ0ND5LZs376dePFr4+M53v3W69X+br/9duL5BCo22a+mP5WvpbgNanPrr1fxY9z59TMTewnbqPnSa/j1jEAr0roRTNmCklaqh/7cf3ZQ8plkgz/hTxWvag2+NN5rVT7hteSXoDZut9s3BOoaW11DkJ8q7qfr4+t3+0h+Ma8PAt1HhA4DcJ0wElGC2kyCoT/bA/Cne7ICX9z9Mgh8gUDr2bFR1m+wINAQ6AYztNIgJAi+RrePdO18vB5Aen2pXlAb+vOPkeRr+LN3/AmB1rNHo6znFwg0Em6DGVpJSnKSjZvQCaY1OfBDeuw3tw/8iSFgkxcSJyQbt9Mv8QeBNlG3t3X8emIWtyKcWuuzENU+Xoc161hvk8voz/6fwLpfgvoa/qzWb0TgT5tXEpfAl8HlS7lctn6URY8TLoMvjddiIdAQaAhK7UcLVKJAgmgkCOWTVolT8plk43ZxgzyYN8gQaCfuZjxgiLuPhoQYPLcP7/ey8fH6kIleX6oX1Ib+/GMk+Rr+hD/1mOXyauELhrhNZO1tPV9DoCFgriyRkoBk48Z0gumNS/WC2tAfBEznGJclLoEvvcMXCLTJXHtbz58QaAiKK0ukJCfZkAB7JwEyTm4f4IdJaSYvJE5Itk7iHQJtomBvQ6ANv+gO0U0SMYPauH30p3vZLsOf7mIKvrj7BXxx90s/8QUC7cyDJn54goZgurIECbD/EyBj6PaRsDUThF5fqhfUhv78YyT5up/8CYHWo6tR1h/gMIsbs0jr39mpwOe1NPNWsnFdzMp1zs6UfCbZ4M/BfQ2JeaHHpCqvFr5gFrczT5jxDoGGoPhOAqslQaz2BIjra50AlejxWuJ1UJuZcNGfjQn7EwLdmp8Y4sYQd2NsRSupRKLtqhclGx+kD9HUK7WYXSu1KdnQ3+AOkTIv3D7gS39MgsMQtxt7m/MnBBqC4soSKclJNm4MAu10qeQzyQZ/+hdh+BMCbUagxAnJ1u34g0BDUEwuW9sSaSVbtwmtX4x0nkFtuD4Ips4xLktcAl+8+YInaJNJ9rb+gAOBbiHQTKLh4WHauXNn0/Lggw/SQw891LRPHcM2XtS2ub7nnntcbUHb7KQ/r/OU2pRsfK3S9aG/Zh6xv+BP73iQ+BJF/En9BbEhHtzzIPvy3/7t3+j66693qBRueBojIBDoNgT6iiuuoGPHjjUtv/jFL4gXcz9vSza2v/baa77rSW1KNvTnHyP4E/w041rihGRD/LWOP1OhIdAQ6CZO6EMKuoGJEmQYBgRrEMz0J/vG7SP5TLJxWxJ+6M/pbfgT/DRZIXFCsiH+os1nazi58XurvHDZbTlz5ozrfq5TKpVo48aNDrvUpmTj/qX+vM5TalOytepvtV9f3P5Ef84Y64Sf8Cf8aebsXsqf4Gdn/MQQd4snMDxBm/famBTDCdHtIz1pBLXhCSXaJxQdx6AYSfWAH/DTOcZlP3yBQEOgTf5Y2xKJJBtXhoA5XSr5TLLBn0jwJpvAl8G5QYZAtxAUPEGb6cHfHaBeW0osQW0QMAiYzjEuS1wCX8CXfuILBBoCbfLV2paSnGRDAkQCNAkFvgzOE5+OvYR7UNug5RcINARaj6l6GQHkLrSDliDqhGjx8Vwj/gAAIABJREFUZAq+gC86V7gclBNSvUGLP/xYRosfywjyD92lf6zP5OOZjYqE+lqqF9SG/vz/IpDka/gT/tRjlsvgC/KZH0744QsEuoVgQqCdv7jih2A6caV6QW3cPm54/GEk+Rr+xA2IHrNcBl+6dwOCIW4McZsjU9a2ClI3o2QbtCEo3T+SX4La4E/3oWP4090v4Iu7X/qVLxBoCLSuMfVyvxK6fgH4Dsz6GkX3hypL2PIxeE1Oeaqxlnwm2eDP1SWYDUbE8x07BLpFQsJrVjol7TISEmblmqyQOCHZuB3cEJjeDJ784c/VdUMAgW6RICDQ/pIHEsTqShA6+pLQBrWBL+CLzjEuS1waNL5AoCHQZnxY21KQSLZBCyDdeZJfgtrgTwiYzjEuS1wCX1YXXzCLu8UsYMzi9jdDmJMHZlX78xlmyXZvlqwSO15LOAS1IR4wK17nWCuemXyBQLcQFAi0P7ExCaaTM2iSk+qhPyRAnWNcBl9ww+OHE73MFwxxY4jbHEGzthXB3YySDUNsq2uITcdfwj2oDXwBX3SOcVni0qDxBQINgTbjw9qWgkSyDVoA6c6T/BLUBn9CwHSOcVniEviyuvgCgYZAm/FvbUtJQLIhQayuBKGTQ8I9qA18AV90jnFZ4tKg8QUCDYE248PaloJEsg1aAOnOk/wS1AZ/QsB0jnFZ4hL4srr4AoGGQJvxb21LSUCyIUGsrgShk0PCPagNfAFfdI5xWeLSoPEFs7gxi7seECoweC3NbJRsXBevWfmb+Q5/YtaxHnuIv6qVf0yfqO1Byi8Q6BaCgtes/IkNB9EgBZBKGryWhDaoDf7Ea2Q6x1rxDHxZXXzBEDeGuM0RJmtbJQU3o2QbtCEo3T+SX4La4E8MAesc47LEJfBldfEFAg2BNuPf2paSgGRDglhdCUInh4R7UBv4Ar7oHOOyxKVB4wsEGgJtxoe1LQWJZBu0ANKdJ/klqA3+hIDpHOOyxCXwZXXxBQINgTbj39qWkoBkQ4JYXQlCJ4eEe1Ab+AK+6BzjssSlQeMLBBoCbcaHtS0FiWQbtADSnSf5JagN/oSA6RzjssQl8GV18QUCDYE249/alpKAZEOCWF0JQieHhHtQG/gCvugc47LEpUHjy5qVlRXrtRh+NYbLbsuZM2dc93OdUqlEGzdudNjZ5tWmZOP+pf6CtNlJf6v9+uL2J/pzxlgn/IQ/4U8zZ/dS/gQ/O+MnnqDxBG3ewFrb0l2sZBu0O1zdeZJfgtrgTzxh6hzjssQl8GV18QUC7SHQv/vd7+jmm2+mQqFAmzZtstbXXnutNSrQKkgQQCtmTrG2Jb8EtSEhra6EpBMnKCekeuAL+KJzjMu9zBcItIdAv/vuu/S1r32N1q1bR1/5ylfo4osvtsp/+9vfLHwlUCUbV+YhKbePVC+oDf0hIZlck7gEvoAv4EuzB7qZryHQgmDu3LmT1qxZYy2XXHIJ/fSnP60jJyU5yYYEiARYJ1GtAL7ghtUPJ8CXweELBFoQ6BMnTtDXv/51S6DXr19Pf//73+txJAWJZOMGunlHVr+AFkM70jVINlwfbkB0jnEZfBkcQdGxl3APahu0/IIfy2jx4w4PPvggrV27ln7yk5/UEw2TCz9+4P5P6dk3PHNTBaC+DuozqR76c8dB8plkgz/hTz1muQy+dC+f9ZxAnz17lo4fP04LCwuO5be//S3xEqaN25qdnfVsc3JykjZv3ky/+c1vmo4Jei6t+mvn+t577z3605/+VBfBXgqgXsOvHX+afJKwXe34SQLN2BaLReL5GebC+4PYuB2Od7M93g7aplQv6v5OnjxJ586dq8em5E8pboPapP6AX2vu9hp+PTPEfeDAAfr2t79N11xzDW3fvp127NjhWG677TbiJUwbtzU0NBRqm9J5htEf++eyyy6j73//+3TkyJF6MtCHl/RyHEPqwG+Hxc12+NmL+El8YWy3bt1KGzZssGKT4yXMZdu2baG21+rcouyP/cQTSu+66y4rNnthSBb4tc/XXsOv6wLNd4q7du2iH/zgB/SrX/1KzxMot/DA4cOHacuWLfTUU09ZIu11eJQCDfy8vN56fy/g53aWii/8NMaxed9999H8/Lzbodjn4YFDhw7RLbfcQk8//XTX5pwAPw9w2tjdC/jxaXZdoB9++GFLYNrwGQ5x8cA///lPuv/++2l8fNzFau9SCdc8gAOYF7dPuzbg5+a99vd1Gz+3M1V8GR4eRmy6OajNffxKJscmi7Tbp90YM+tK9fhY4Gd6LNh2t/Hjs+6qQL/66qvWMG0w96GW8sBf//pXuuqqq6x/u6r26WsVsPo+LkuB3o4N+JkeDbbdLfy8zpb5wtjeeeedXodgf5se+Oyzz+iKK66gU6dOOWq0E2OOSi3ilo8Hfm5eC7avW/ips+2qQH/ve9+jo0ePqnPBugMPPPvss5536lEJNPDrADCjajfwM06hvsl8ueOOOxCbdY90VmBsn3nmGUcjUQo08HO4O/CObuCnTrZrs7grlYr1+pI6Eaw788Di4qI1kUcFvb6O4rUn4NcZXmbtuPHjuQM6R/TyH/7wB7rgggs8v/4wzx3bsgd45jhPTNN9zOWgM7Wletwu8JPx8GuNGz89X3dNoD/55BP65je/6ddXON7DA3/+85+tXxUzkwBv64DrdinQW9mAnwcQAXfHjR/jq3NBL/MvuPHbFPiE4wGOP/5//rqPudwqxrwwkupxu8AvHNxUK3Hjp+frrg1x8zt5EGhFgc7XKsG7tRTFEDfwc/N08H1x48eJ3Ovz/vvvW4LiZcd+fx5QCd6spQTb3M/bQW1cF/i5eTT4vrjx0/M1BDo4bj1VM+4ED4EOF/648YNAh4uf1FrcCR4CLaHh3xY3fhBo/xj1fI24EzwEOlxKxI0fBDpc/KTW4k7wEGgJDf+2uPGDQPvHqOdrxJ3gIdDhUiJu/CDQ4eIntRZ3godAS2j4t8WNHwTaP0Y9XyPuBA+BDpcSceMHgQ4XP6m1uBM8BFpCw78tbvyaBJoDtdWsQD5BPs5cuF65XLZmfLrZpFmImAXsnyhSDU7w/M9KTBx4W8JPwkiyAT8JDf+2uPHzwpb5wrOAedYxPuF4QCV4MzYZAy8cgtqAXziY6a3EjZ+er/GalY5EH5fjTvAQ6HDJEjd+XsKABB8urtxa3AkeN1jhYhg3fk0CzZei7uy8Lkt/5NaP4Xqffvqp69221CbbMESqe7LzMif4jRs3ujYk4cdYuH2An5tXotsXN35euPMVYog0XJxVgjdbbRVjXhhJ9YCf6eXOt+PGT8/XeM2qc/x6ooW4EzxusMKFPW78vJI/XxUEOlxs407wwK+/8YNAh4tfT7QWd4KHQIcLe9z4QaDDxU9qDQIteaf3bXHjB4HufU74PsO4EzwE2jdEYoW48YNAi3CEaow7weMJOlT46nMIzFalrxqC2riPwRDoxSzdfc/d1jK6d5rmVkz3NrZLU1kqNTbbK50r0vRkhjK8HCtbdaqn85TZk6DkwRJVa61U3slSaixB6bfsY9pr3P9RUSb4YrFIL774Yv2kmHxeAl2eGaXUbKV+bBSFlWNZKgh4tuzzXJGyexOUGM/Q3NmWR9cOKFF2yjdLGo1rfLR4uadA+iVEiV/jJOySnjxMbPmIyBO85otBiM0oBdoPfnHEJi1mKbtoMs7vdpnyzzfHh9zCChWm/BxvtlaibE0r3GIzSvzMM+HtwRDohTSlF2qX/0WZph9N0ZxSzWqFKhW1QVScSFPROrRK/CtNlfO1evwaRK1Iepn3vZOmdBMRS5TZkyeWpups0u67UqDkpJ3Ulw4kKbesGgt/HWWC//d//3e66KKLaPPmzXTo0CFrUqG7QJcoszdN6SenqX47cp5fJWn2N5HhZ3bH+Zrfz9c9TlXGQsNJeW1lJu3wZVVh9kWVqjzvjduz6mt4Wg1UaW48SQXr+BJlnsw3CWW9HcZRtWnVK1J6wmaJOg/Sz9U6tnZdtX4bV0JEOh/rDTQKUeLX6MUu6QJtYstHRC7Qui8GIDajTPDt4+cSm7XXvDhOdK464u4L5nWVSMUWk8SKL71WjWU6trVdjjix2lPxabRxrkiZsRF6YCzXFJfclB6PeplohXITxvFavq7W4tS+rlq/Td0WKf1Do746d20WvrbLKupxFJaN22kSaN5gAvHCZbflzJkzrvu5Dk/p59nDZj2pTbbxz+tdd9115nWFt20QZWVmxBLU6mKGEpN5mpvNUnJ/0SKmLdBlyj2Rotz8HOUnRin7IRGdylDyiP00WNyvCTwRlV8aptG9SRp9LEW501Wi5Rwlnq89YS3nKD2zYiXlxLHa06RxPuFdqN0SJ/h/+Zd/of/7v/9zLL/4xS8c+/i448ePW4tbHd2Wz+fpq1/9Kq1Zs4bWr19PN954I/3Xf/2XE7+FNKXeqlL5YIKmP7HPqzixmUaez9PckTSNWv5x+pkxSU4VaG4mQ8PfsW+WVg4nKXmQ96VoxHhydQq0Jp41P1dOz9Hc/BwV9g/TyGH9WVXz/LkCJfbNacmpQvk9GXs0ZTlHqYP12wwi0vqoNdG4savZqitUmud+pylxf5pKehJg38yqpFQh874jSvxMfFth+5//+Z/R/pqVEQurPTY53/H/KJBwCGpzi01X/Fxik/3+wN4cFWanKbG3YD1clF8bpdTMnB2vU0tEVX7wyFJhPkeZH37XevDgeB3db+fQ0T12vXpUGdjyfkecnFuyYnPuWJqGH22+QbaE/wsXwSUpNp3HN3KEslVpZdHOCdNjD1B6UQ/OIqUfnqYldUOvm2oCffXVV/vWOMbd1EXelrSR7brert5Z3AZRVmaGLXIVJ4YpM2sDlX0iQYVKg0DVlRIV5wuU2/tA7em7TNP78lSpzlFaiW+NiZXTSxahiZYoOzZNZU7or9USuibQqXdqFYzzqRM6pAIn+G984xs0NDTkWLZs2eLYx8dt377dWtzqmLa1a9daAs0izU/T1157rfFrZPxkOmL7diZFw7WRg+JEqjY6sUK5MVv8TD83jqlQYYwFeoVy+3K1p/AKFZ5MN30F0Qg+5TxNPHU/n83Vb8LUkfX1uTlK7U5Tsekpmaj6Vpoyp4jKB9OUP1c/uj2Btg6vUnF/knLm0PlCmkYP2LzjG4fScnMWiBo/HeNW2HIyivQflegY8RPDKo9NTsiXX365IwZNHCSMJJsZm0783GNzZSZV52lxws6FdH6FSgtzVJhJ0gM8YsTCXsthlWOJWg5VMU1Uej5Bef3+18CWQ8Ih0FaclCm3xxl/dsQpUbW31F/v2HQe38gRzbbqQpqSM/qNN7depPQ9KcpbN9fO2GT83OIhlidoPj2pI7azqrt9uF7PvgfdRJQqze21CVjan6D8sv0ks/ShLbIWgSoFSo0XqFypUvWdVE2gOVGnaPolO2k3fFCh4sFCTUDKlHuMhadIqX21IVB+8uYn57MN0a4cS1qJv9FGuCVO8FG9B/3rX/+aLr74Ymu58sorre+jHUPc5/LW06g9rFym3Jg94lCcSNa+WihTjoe+Xfxcqo9OrFDuh7ZA58fVMHlD2JXHGsGn9hQprXyvsDtfpPQeJfLquNr6bJ4SYzkqu70CXp2j1P5pyvKNWVM17Sagtr9xY1GkVG34uzzDX280i691eBMfmxq2NqLEz+xNj3cT26mpqXiHuGn1x2aUCb4t/Dxic2Um2Rjp2sdxWqHCeIoKZytUrdY4vWiPijGH1I1UI15ZfGvCrkjmwnNnnHjcxKo23Ias2eYZm80ibJ+ruvkoWzf7loJ53rD38BA3X4wesHUfaYV+FegHxngSV4oSu0coVZvIRWfzlBzLUm4mTYlJbYibh3KeSFN+NkeZJ4dtgWUfnMvT6D1KLBpOqcynKTExTdMTCUrO2jcwSwdHKTk1TWl+UrRydIXmxkcpfTBLib3GUE6jqVBKUSb4HTt20KWXXkqcvPnDfDEFunKk+QakOp+ixJEKFSe+SyPjWZqerPnJzc+MyRMpyown6IHv2E/L1YVMzb+jlDjcfMe7MpOgkfHaBL1JvlGqUGHPCCUn05R67G5KL/BT9zYa3ls75mBRE9sK5R+7m0Yn3Gw2FKXJbZR8yxTZIqXvT9iTAiczNL1Qocpskkb2ZCi9b5TuZoH+MEvfvWuU0rXJg4XaML/V6kKabD669xslfvZVNf7q8W5iy0fF8R30IMVmlALdDn5esclx9MBYmqankpQ4wBNbq1SaHKX0kQLlJhM0bA17lym/Z5RSnEfv/64976aWQ6enEjRay6F1djXxfJqKFXLESWU2Qdt+mKzFkn1Mvb5VcAqusrvHJt/Ej1BKn7R7KksjnFP28TXy98tLlP2OFvdKD6yGIdDKv9baLcE3HdBLGyt5Sjd9F9lLJ9c4l7gTvCnQjTNpLjWGt5r361sr8zkqWsPJS5Qdj/ZGRu/Xq1yaTDcmFHodFPL+uPHjGPT6RC7QXh373d8nsRmlQLu5rF38nCNRLq2tzFFuwR5LWjqQah7Odjk86l3diM248dMfiFfvd9BhMKVSpOmpApXNh6kw2g65jbgTfLsCXT6mvgoQLvj8EuUPZCn7/HRNqIVjIzaVj9lPxxF342g+bvz6XqD7KDbjTvDtCnRloWA94TrI2LSjSktHspSdytD0O81f+jQdFsNGt2IzbvyaBJoDVfrlFLbzCfLaXLgefs0qBma20QUnePyaVRuO6tFD4sYPP5YRHxFUgnfLn144SDlZsnEf+LGMcLGNGz9db/FrVuFi2bXW4k7w+DWrcKGOGz8vYUCCDxdXbi3uBA+BDhfDuPFrEmi+FHVn53VZ+iO3fgzX69lZ3PqJDkCZE3xUs7hN9zHu7Q5xm3Wx7e6BuPFjDL0+7Q6RetXH/mYPqATfvFfOu1JOlmzcB/AzPd3Zdtz46XqL76A7w65nased4CHQ4UIfN34Q6HDxk1qLO8FDoCU0/Nvixg8C7R+jnq8Rd4KHQIdLibjxg0CHi5/UWtwJHgItoeHfFjd+EGj/GPV8jbgTPAQ6XErEjR8EOlz8pNbiTvAQaAkN/7a48YNA+8eo52vEneAh0OFSIm78INDh4ie1FneCh0BLaPi3xY1fk0BzoLaats8nyMeZC9fDa1b+AY+iBid4vGYVhWfjaTNu/DCLOx5cuReV4N3ypxcOUk6WbNwHZnGHi23c+Ol6i9eswsWya63FneDxmlW4UMeNn5cwIMGHiyu3FneCh0CHi2Hc+DUJNF+KurPzuiz9kVs/huvhNSvdI90rc4LHa1bd83+nPceNH8eu1wdDpF6eCbZfJXiztpR3g9q4D+Bnerqz7bjx0/W2a69ZLS8vE/8sGj7heID96fX72jrgem9BkwDXA366Jzsvx40fY+j1+eijj2jDhg1eZuz36QGer3H99dc7anUSf8DP4c7IdsSNn56vuybQTDD+jdQ//vGPkTl2kBo+duwY3XPPPa6XrAOuH9BpggB+ujc7K3cDP68zZr7wz4ryTQM+nXvg6NGjdO+99zoa6jT+HA3WdgA/L88E298N/NSZdlWgH3/8cXruuefUuWDdgQd2795d/zlIs5moBBr4mZ4Ovt0N/LzOlvkCbL2843//I4884hqbUQo08POPk1eNbuCnzqWrAn3q1Clav349nT59Wp0P1gE8kM/n6Vvf+hb94x//cK0dlUADP1d3+97ZLfy8TpT58sEHH9C6devo448/9joM+9vwAGN7ww030Jdffuk4OkqBBn4Odwfa0S381Ml2bRa3mkX64osv0k033UQnTpxQ54S1Dw8cOnSI1q5dS7/85S/rk/1U4Ku1PitQ7eO19LpGuzbg5wMsl0O7jZ/OB1VWfGFsb7zxRlpYWHA5c+xq5YHXX3+dLrzwQvr5z3/uGpvtxpjCRa2lenwM8GuFTHv2buPHWHZdoPkkfvazn9Gll15KP/rRj+jNN9+k3//+99a7fPy6ABanD9577z165ZVXaOfOndbNzfHjxy2xVQFsrlXAmvulQPdjA35OjCTe9hp+Ji90vjC2PNeAY/ONN96gxcVFOnnyJBYPH/CDxssvv0wPPfQQ3XzzzfT222/XBdP0s58Y0+tK9fg44Becn72GX1eHuPX7mL/85S/0wgsv0K5du2jr1q20bds2x3LrrbcSL2HauK0tW7aE2qZ0nmH0d9tttxF/L8IizR8VvLo/9XJUQ9x6H8Bvm8XNdvjZi/jpWJp8+fzzz+uxOTQ0RG7L9u3biRe/Nj6e491vvV7t7/bbbyeeT6Bik/1q+lP5WorboDa3/noVP8Z906ZNDuwlbKPmS6/h1zMCrUjrRjBlC0paqR76c3/dRvKZZIM/4U8Vr2oNvqwoVzStJb8EtXEH3b4hUBfZ6hqC/A+Nfro+vn63j+QX8/og0H1E6DAA1wkjESWozSQY+rM9AH+6Jyvwxd0vg8AXCLSeHRtl/QYLAg2BbjBDKw1CguBrdPtI187H6wGk15fqBbWhP/8YSb6GP3vHnxBoPXs0ynp+gUAj4TaYoZWkJCfZuAmdYFqT4nflUpuSDf31TsJlnNw+wA9D3CYvmBMQaNMr9raePyHQEBRXlkhJVbJxYzrB9MalekFt6M+/KEq+hj/hTz1muRwVXyDQpqftbT1/ruENnpbPC5fdljNnzrju5zr8Ogn/SINZT2pTsnE7Un9e5ym1KdnQnzvuks8kG/wJf/rJBeDL4PIliHYMGl/wBI0nPtfbOOmuWbJxYxxEbh+pXlAb+sMTn8k1iUvgS+/wBU/QJnPtbT1/QqAhKK4skZKcZEMC7J0EyDi5fYAfbiBNXkickGydxDsE2kTB3oZAG37RHaKbJGIGtXH76E/3sl2GP93FFHxx9wv44u6XfuILBNqZB0388AQNwXRlCRJg/ydAxtDtI2FrJgi9vlQvqA39+cdI8nU/+RMCrUdXo6w/wEGgIdANZmglKQlINm5CJ5jWpDgbVGpTsqG/wU3wzAu3D/jSH0P4EGg39jbnz574sQwVUGrNs4RVWV9L/yQ+qI3bR39fOPwNf1YdPlFcBF/AF8UFXkuxgvziHkfss3K5TNdcc40jzuDPhv5BoCHQjgBplXQQQI0AajdRSz6TbEjw3gme/ab7X5Xhz/7gJwTaeaNrxjuGuDEk6zrOopKdm1Gy8fEY4nZ6TfKZZIM//Q9jw58Y4jYjUOKEZOt2/EGgISgml61tibSSrduE1i9GOs+gNlwfBFPnGJclLoEv3nzBd9Amk+xt/QEHAg2BdmWJlHQkGxKSd0Jiv7l94M/+eOIDfm7sDT5iBoFu7U8INATalSWSaEg2bky/A9Qbl+oFtaE//6Iv+Rr+hD/1mOVyVHyBQJuetrf1/AmBhqC4skQKSsnGjekE0xuX6gW1oT8Iis4xLktcAl96hy8QaJO59raePzGLG7O46wlNJTZeSzNhJRvXxWtIztmZks8kG/zpf6Y2/IlZ3Hou6+d8BoGGoECgv2gWVCT4/kjwjJOZiFslY7bjBrKZ7618FlU84DUrJw4mPzHEjSFZ13EWJgovbh/JxsfrQzR6faleUBv684+R5Gv4E/7UY5bLUfEFQ9ymp+1tPX9CoCEoriyRglKycWM6wfTGpXpBbegPgqJzjMsSl8CX7vPld7/7Hd18881UKBRo06ZN1vraa6+1RjaAX3P+hEBDUMz8Zm1LSU6yIQF2PwG2SnLAD691mUEvcUKyBYn3EydO0Ne+9jVat24dfeUrX6GLL77YKv/tb3+zTivs/vo5HiDQEGgzVlsGCQIICd4kjcQJycbtYMTF9KY8CrAa/Llz505as2aNtVxyySX005/+tO6E1XB90jVINjMeINBIEPXA0AsSiSSbSbAw2kR/uCHQecRliROSDfzsjREefor++te/bgn0+vXr6e9//3sdYuDXiHfM4sasznqyU4HBa2nmpmTjupgl65ydKflMssGf/mdqw5/9MQv/wQcfpLVr19JPfvKTphwE/Br4QaAhKE3BoURaChLJBkGBoCgOqTX40ki4yie8lvwS1Mbtet0gnz17lorFIr377ruOhfcHsXFbx48fd7TH+1u1+d///d+0efNmeuedd5rqS/U66a+d6zt58iSdO3euKSd6+TMoRlI9Ez8McWOIuz60pBdUItH3qbJk42PwnaLyVGMt+UyywZ+9MSQrYSTZegG/AwcO0NatW2nDhg20fft2GhoaCnXZtm1bqO21Or8o+2M/8aS1u+66i44cOWIFcDfzGQQagtJQEa0kJR3J1gsJSV2GdJ5Bbbg+CKbil1pLXOomX/i8du3aRffddx/Nz8+r08W6DQ8cOnSIbrnlFnr66ae7+sABgYZAu9JVSjqSjRvr5h2nfjHSeQa14fog0DrHuCxxqZt8GR4epqeeeso8XWy36QF+7ev++++3RNqtioR7UBv3o+dPCLThEB2IoE6W6pkAoD/bA5LPJBv8CcHUY4jL4MsKvfrqq3TnnXearsG2Tw989tlndMUVV9CpU6ccNSWeBbVxJxBow9W6Q3RTUCdL9UwA0J/tAclnkg3+hEDrMcRl8GWF7rjjDjp69KjpGmwH8MCzzz5LzzzzjKOmxLOgNu5E1yM8QRsO0VEI6mSpngkA+rM9IPlMssGfEGg9hrg86HxZXl6mCy64wPKD6Rts+/cAzxznyXXmR+JZUBv30STQvMHTyHnhstty5swZ1/1cp1Qq0caNGx12qU3Jxv1L/Xmdp9SmZEN/7rhLPpNs8Cf8aeYQ8MU7f7JvTH/xtuQzycZ1+XWia665xtQTbAf0APub/WniJOEQ1MZ96PqHJ2jjjkXHMOhdkFSP22cQ3D5SvaA29IcnTJNrEpfAl/7ny/vvv2/9CIWJO7aDeYDFln/Uw/xIcRTUxn3o+gCBNhyigxDUyVI9EwD0Z3tA8plkgz/7X1D0hIR46DweINA6izovQ6ANHyJgDYe0+F4NAoYRCZMxEickG7f/m6aQAAALi0lEQVSD+DO9KX+v3Wv+hEA78etkDwTa8B4ShOEQCLQ44QV8AV90D/SaYMbNTwi0zobOyxBow4dxExr9GQDghgA3BE5KiLOjJVGUbNwN4s/pbMlnko1bgkA7/dnJnq4KNIPt5593K3KoeuVy2Zrhpu9XNm7X3N/KxnZ2iN960jVINvTnHyP4E/w041PihGRD/IUff/xmjdukpk5EapDrKoEOi/N+4gG/ZoUbglBvhpBww0+4uGHFz3fq4tAqwUOgw72d6KpA86Uo8L0uSxqC+vTTT13v1qQ2JRufg9Qf13X7SG1KNvQHf5p8Al8w6c4PJ3qNLxjiNtHrbFsJtNmKhHtQG/eh6x9eszIcooMQ1MlSPRMA9Gd7QPKZZIM/cYOlxxCXB50vEGiTEZ1tQ6AN/+l3ELpJCrygNm4f/eletsvwp7vwgS/ufgFf3P3SDb5AoJ35rJM9EGjDexBMwyEtngqk5MgtwZ/wp+4B8GV1D+FDoHW2d16GQBs+hKAYDoFAW8OWTq/Ye8AXp2ckEZZs3BL82d/+7FSgq6dzlHpslEYfTVD6rbLTGZ3uWSlQ9hjfJFVp6bT7zVKjixUqTBWo1VGN48MvdVWgOVhbzQrkE1RBra+5Hl6z8jfDlP0n+ZN9qvtYlSWMJBv6gz8Vh9QafPHOZ6sh/jqbxV2m6bEsLdV0rjSZoHxdHatUqVSo6hjNr9oaUqnataoVqqgy7znPdn0fb7M+z1FqvFBvr1qpkF7NbmyFchM5p0B/4XIu5/U+iKrcL7d5vnYxAVdKoFX8qLUUR0Ft3LauD6G8ZnXllVcS/ySXvvAvqvCi71NlycbHHD9+3Hc9qU3Jhv78YwR/gp8qltVa4oRkQ/yFH3//+7//S1dffXVAOapSaf8wjU7lqXi6QjXJJaqWKDOWofx8gbJ70lTURW85R4mdKcoenKPTixlKTOZpbjZLyf1Fq35xYjONPJ+nuSNpGn2+RLSco/TMClWXczT6RJaWzq1Qfm+SpmfnKLcvSbmz+qm7CDSfyxNp+1yeSFLhHFF1MUOj++1+R/cUqEJFSv+/EcocmaP8xChlTult+it3VaD5VNUdgddpS0Ne/JrVfffdR0NDQ00L/34mL+Z+3pZsbN+yZYvvelKbkg39+ccI/gQ/zbiWOCHZEH/hx9/mzZvpqquu8krnbe2vnluiuZkMje4cpfwyES2kaXiyQHPzczR3YJQSxyqNdpZzlHzJHgovTgxTZnbOOi77RIIKFaLiRIqK1tErlBvLUKkm0MQiOlG0BHt0z7Td9uEUDbOI1z8uAr2QptQ7tQNOZShxeEXrg6j0PD/1Fym9z+6VbwgSTW3WG2+roATaPFjSzaA27kPX245fs+ITcfuEdYJ620HblOqZDkF/tgckn0k2+BPxoMcQl8GX+hhxk2skvwS1cQcdfQd9fo5Supi9k6LEbJVoMW0JIQ9xV04v0ZKmz+qJmPsu7U9QfpmHmiu09OES8WHFiSTNWY/iZco9OU1lU6BX8pR8vmjVqSwv0dJy/bmd5co5xL2YptRbtWMW0tbNQml/qtYH98c3BkVK752zRwDO5ihRu4FoAqDNDQi04Sj9DkI3BSWtVI/bR3+6l+2y5DPJBn9CoE02gS99JNBEVD6coOGxFGUmkzT6WJZKNXHN701QdiZH6bGMY4ibh6ytz9k8JceylJtJU2JSDXF/l0bGszQ9maDk7Ep9iJtoibI/HKXswp+oOJmg9EyOsmNJyptD3GMjlJrMUIaXY/ykXibrXA5mKfFY7Vxq/U5PJWjU6rdI6e+MUOrANGXGklTgUYCAHwi04TgIpuGQFk8hSIDxJkDwE/zUPdBr8dfRE7R+YSGVixPp2hB3SA221Uxt+LytY+WDINCGf5AADYdAoK1hUqdX7D3gi9MzkmhINm4J/uxvf/aaQJePFSiCl7WcIDXtKVPBetpu2hloo6sCzcEqTQlnO5+gCmp9LdULakN/eC1I5xiXJS6BL+AL+NL8qmdnr1kF0rBVXUkJtB+eSTlLspn5rOPXrLgz88R5WzoJyWaeoN62VC+oDf0BP51jXJa4BL6AL73OFwh0uPcLXRVovhRFOK/LwpCX0zOSzyQbtwR/wp+6B8AXzCHQ+cBliROSjev22hC3eW39tq0E2jxvCYegNu5D1we8ZmU4RAchqJOleiYA6M/2gOQzyQZ/Yta4HkNcHnS+QKBNRnS2DYE2/KffQegmKfCC2rh99Kd72S7Dn+7CB764+wV8cfdLN/gCgXbms072QKAN70EwDYe0eCqQkiO3BH/Cn7oHwJfVPaQOgdbZ3nkZAm34EIJiOAQCbQ1bOr1i7wFfnJ6RRFiycUvwZ3/7EwLtxK+TPRBow3tIEIZDINAQaCclxO9aJRGWbNwN4s/pbMlnkq0b/oRAO/HrZE9XBZqDkU+AFy67LWfOnHHdL9ULauP+0Z8TB/gT/DRjMygnpHqIP3eeST6TbN3wJ/962DXXXNOJJqGu5gHGl38drBvxh1nceGLQqNgoSk8Fko1bYCK7faR6QW3oz31yEvzp7pdB4AueoN2yT/B9LNCbNm1yNBA0xqR6Jj8h0BAUB/F4h0QiyWYSTG9cqhfUhv7chQj+dPfLIPDlo48+og0bNuihh3IHHjh79ixdf/31jhaCxphUjzvRH3Ag0IZDdBQkRwa1mQCgP9sD8OfgCoqekBAP4cTDlVdeScvLHfyEkw7EgJePHj1K9957r8MLQXOWVI870eMBAm04REdBcmRQmwkA+rM9AH9CoPVY4HJQTkj1uF09Aep9SvWC2rrV3+OPP07PPfecfnkoB/TAI488QlNTU47aQTkh1eNOdH5CoA2H6ChIjgxqMwFAf7YH4E8ItB4LXA7KCaket6snQL1PqV5QW7f6++CDD2jdunX08ccf65eIsk8P5PN5uuGGG+jLL7901AzKCaked6LzEz+WgV/rqidCRRxeSz8YIdm4Lk+q0NtSZaleUBv6w49XKH6ptcSlQeLLiy++SDfeeCMtLCw4xAU7Wnvg9ddfpwsvvJB+/vOfdy2fQaAhKKGSb5ASoBIEtZaEIagN/sQNiOKXWktcMvnys5/9jC6//HL60Y9+RG+88QYtLi7SyZMnsXj44MSJE/Tyyy/TQw89RDfffDO9/fbbXX3gwBC3MaSg31epgND3qXJQG9fXhzBUe7wO2qZUD/25Dx1LPpNs8Cf8qcdsq7jtBb58/vnn9MILL9CuXbtoaGjIddm+fTvx4maXbHz81q1bfdeT2pRsUfd3++230+7du+mVV16pw9zNfA2BhmDWiagXJJGSbL2QkNR1SOcZ1Ibrg0Arfqm1xCXwBXxRPFFrP3yBQEOgFW+a1hKJJBs30s07Tv0ipPMMasP1IeHqHOOyxCXwBXzphC8QaAiKyR9rW0o6kg0JCQnJJBT4gv+s54cT4EuDLxBoCLQZO9a2FCSSjSvjCdrpUslnkg3+xA2PySbwpSFgum8kvwS1dTv+MIsbs7jrQ3SKxLyWZopKNq6L16y+cPhU8plkgz8xi1uPy1axCb6sLr5AoCEoDjFplQQgKHjP249ogC/gC/jSuGn3Ew8Y4saQrD5KVC+rgKrv0AqSjQ/DELfmrFpR8plkgz8xxG2yCXwZoCFuBh+ADw7gerBLuAe1QVAgKDrHkF9ww2ryoRUnpNzDdQfpAQBP0AMGuB4sUiAEtQ1aAMGftgfAF/cbM8SDu1/AF3e/mHyBQEOgdY2plxFA7QVQ3WEtRqLgT/hT5wqXg3JCqsftDtITpu5TyS9Bbd32JwQahNY5Xi/3K6HrF4AEaAmA7g9VlrDlY5Dglacaa8lnkg3+dL8xk3wm2QbNn5jFjVnc9Tt5FRi8lmYaSjaui9esGjM2lU8ln0k2+HN1vTaj+MBrCfegNvBldfEFAg1BgUB/0SyoUnJEAlxdCRCCaXNf4rxkQzxEGw//HxlMAzBmwsLoAAAAAElFTkSuQmCC;" vertex="1" parent="1">
          <mxGeometry x="80" y="40" width="488" height="657" as="geometry" />
        </mxCell>
      </root>
    </mxGraphModel>
  </diagram>
</mxfile>
